solid
facet normal -0.543710 0.839214 -0.009927
outer loop
vertex -0.119012 0.112233 1.527383
vertex -0.006103 0.185096 1.502998
vertex -0.005365 0.182815 1.269747
endloop
endfacet
facet normal 0.243922 0.969756 -0.008712
outer loop
vertex -0.005365 0.182815 1.269747
vertex -0.006103 0.185096 1.502998
vertex 0.124904 0.152363 1.527383
endloop
endfacet
facet normal 0.832043 0.554462 -0.016635
outer loop
vertex 0.124904 0.152363 1.527383
vertex 0.202846 0.034437 1.495254
vertex 0.195486 0.038716 1.269747
endloop
endfacet
facet normal 0.206281 -0.728794 -0.652923
outer loop
vertex 0.363763 -0.327137 1.384377
vertex 0.449554 -0.279467 1.358272
vertex 0.781119 -0.510558 1.720969
endloop
endfacet
facet normal -0.474455 -0.880201 0.011773
outer loop
vertex 0.363763 -0.327137 1.384377
vertex 0.744865 -0.528013 1.724497
vertex 0.721503 -0.514508 1.792693
endloop
endfacet
facet normal -0.140885 -0.990008 -0.005911
outer loop
vertex 0.054295 -0.158193 1.535005
vertex -0.080518 -0.138720 1.486750
vertex -0.080183 -0.137279 1.237439
endloop
endfacet
facet normal 0.973981 -0.224822 -0.028564
outer loop
vertex 0.147395 -0.000106 2.158443
vertex 0.165023 0.078304 2.142375
vertex 0.221859 0.239572 2.811071
endloop
endfacet
facet normal -0.034422 -0.999401 0.003491
outer loop
vertex -0.245350 0.001727 1.306636
vertex -0.239884 0.002144 1.479896
vertex -0.494658 0.011089 1.528557
endloop
endfacet
facet normal -0.868870 -0.495024 -0.004029
outer loop
vertex -0.080183 -0.137279 1.237439
vertex -0.080518 -0.138720 1.486750
vertex -0.149464 -0.018036 1.527383
endloop
endfacet
facet normal 0.000000 0.000000 -1.000000
outer loop
vertex -0.147331 0.132550 0.001283
vertex -0.099200 -0.160002 0.001283
vertex -0.183855 -0.023694 0.001283
endloop
endfacet
facet normal 0.000000 0.000000 -1.000000
outer loop
vertex 0.193353 -0.111871 0.001283
vertex 0.057045 -0.196526 0.001283
vertex -0.099200 -0.160002 0.001283
endloop
endfacet
facet normal 0.000000 0.000000 -1.000000
outer loop
vertex 0.145222 0.180681 0.001283
vertex 0.229877 0.044373 0.001283
vertex 0.193353 -0.111871 0.001283
endloop
endfacet
facet normal -0.000000 0.000000 -1.000000
outer loop
vertex -0.147331 0.132550 0.001283
vertex -0.011023 0.217205 0.001283
vertex 0.145222 0.180681 0.001283
endloop
endfacet
facet normal 0.000000 0.000000 -1.000000
outer loop
vertex -0.147331 0.132550 0.001283
vertex 0.193353 -0.111871 0.001283
vertex -0.099200 -0.160002 0.001283
endloop
endfacet
facet normal -0.000000 0.000000 -1.000000
outer loop
vertex -0.147331 0.132550 0.001283
vertex 0.145222 0.180681 0.001283
vertex 0.193353 -0.111871 0.001283
endloop
endfacet
facet normal 0.058831 0.081996 0.994895
outer loop
vertex 0.176456 0.272148 2.811071
vertex 0.221859 0.239572 2.811071
vertex 0.205870 0.265216 2.809903
endloop
endfacet
facet normal 0.058878 0.082137 0.994880
outer loop
vertex 0.189452 0.194401 2.816718
vertex 0.215059 0.210240 2.813895
vertex 0.221859 0.239572 2.811071
endloop
endfacet
facet normal 0.058879 0.082064 0.994886
outer loop
vertex 0.144048 0.226977 2.816718
vertex 0.160038 0.201333 2.817887
vertex 0.189452 0.194401 2.816718
endloop
endfacet
facet normal 0.058940 0.082091 0.994880
outer loop
vertex 0.176456 0.272148 2.811071
vertex 0.150849 0.256308 2.813895
vertex 0.144048 0.226977 2.816718
endloop
endfacet
facet normal 0.058914 0.082111 0.994880
outer loop
vertex 0.176456 0.272148 2.811071
vertex 0.189452 0.194401 2.816718
vertex 0.221859 0.239572 2.811071
endloop
endfacet
facet normal 0.058912 0.082111 0.994880
outer loop
vertex 0.176456 0.272148 2.811071
vertex 0.144048 0.226977 2.816718
vertex 0.189452 0.194401 2.816718
endloop
endfacet
facet normal 0.543861 -0.813750 0.205002
outer loop
vertex 0.078765 -0.041926 2.174512
vertex 0.147395 -0.000106 2.158443
vertex 0.215059 0.210240 2.813895
endloop
endfacet
facet normal -0.190011 -0.910311 0.367737
outer loop
vertex -0.000663 -0.022658 2.181168
vertex 0.078765 -0.041926 2.174512
vertex 0.189452 0.194401 2.816718
endloop
endfacet
facet normal -0.795954 -0.479461 0.369559
outer loop
vertex -0.000663 -0.022658 2.181168
vertex 0.160038 0.201333 2.817887
vertex 0.144048 0.226977 2.816718
endloop
endfacet
facet normal -0.936622 0.288914 0.198159
outer loop
vertex -0.026733 0.124821 2.158443
vertex -0.038332 0.057178 2.202242
vertex 0.144048 0.226977 2.816718
endloop
endfacet
facet normal 0.217665 0.956406 -0.194702
outer loop
vertex 0.041896 0.166641 2.142375
vertex 0.176456 0.272148 2.811071
vertex 0.205870 0.265216 2.809903
endloop
endfacet
facet normal 0.837309 0.511030 -0.194328
outer loop
vertex 0.165023 0.078304 2.142375
vertex 0.121324 0.147373 2.135720
vertex 0.205870 0.265216 2.809903
endloop
endfacet
facet normal -0.528042 0.848782 -0.027207
outer loop
vertex -0.026733 0.124821 2.158443
vertex 0.150849 0.256308 2.813895
vertex 0.176456 0.272148 2.811071
endloop
endfacet
facet normal 0.976404 -0.206693 0.062561
outer loop
vertex 0.174537 0.065904 1.952919
vertex 0.165023 0.078304 2.142375
vertex 0.147395 -0.000106 2.158443
endloop
endfacet
facet normal 0.542527 -0.829016 0.135635
outer loop
vertex 0.057537 -0.096108 1.931091
vertex 0.152863 -0.028229 1.964680
vertex 0.147395 -0.000106 2.158443
endloop
endfacet
facet normal -0.211198 -0.950027 0.229880
outer loop
vertex 0.057537 -0.096108 1.931091
vertex 0.078765 -0.041926 2.174512
vertex -0.000663 -0.022658 2.181168
endloop
endfacet
facet normal 0.327404 -0.116328 0.937696
outer loop
vertex -0.209850 0.001463 2.189971
vertex -0.236017 0.063504 2.206804
vertex -0.587331 0.088821 2.332609
endloop
endfacet
facet normal -0.557739 -0.417680 -0.717266
outer loop
vertex -0.240937 -0.033603 2.026265
vertex -0.613066 0.053973 2.264631
vertex -0.625210 0.081918 2.257801
endloop
endfacet
facet normal 0.210697 0.977551 0.000725
outer loop
vertex 0.121207 0.149721 1.907429
vertex 0.026974 0.170009 1.937792
vertex 0.041896 0.166641 2.142375
endloop
endfacet
facet normal 0.844835 0.535004 0.005070
outer loop
vertex 0.121207 0.149721 1.907429
vertex 0.121324 0.147373 2.135720
vertex 0.165023 0.078304 2.142375
endloop
endfacet
facet normal -0.510567 0.858207 0.052933
outer loop
vertex -0.056233 0.121781 1.923187
vertex -0.026733 0.124821 2.158443
vertex 0.041896 0.166641 2.142375
endloop
endfacet
facet normal -0.523841 0.843458 0.119032
outer loop
vertex -0.147331 0.132550 0.001283
vertex -0.119012 0.112233 0.269876
vertex -0.005365 0.182815 0.269876
endloop
endfacet
facet normal 0.226008 0.966826 0.119030
outer loop
vertex -0.005365 0.182815 0.269876
vertex 0.124904 0.152363 0.269876
vertex 0.145222 0.180681 0.001283
endloop
endfacet
facet normal 0.843458 0.523841 0.119030
outer loop
vertex 0.124904 0.152363 0.269876
vertex 0.195486 0.038716 0.269876
vertex 0.229877 0.044373 0.001283
endloop
endfacet
facet normal 0.966826 -0.226006 0.119033
outer loop
vertex 0.195486 0.038716 0.269876
vertex 0.165034 -0.091554 0.269876
vertex 0.193353 -0.111871 0.001283
endloop
endfacet
facet normal 0.523841 -0.843458 0.119032
outer loop
vertex 0.193353 -0.111871 0.001283
vertex 0.165034 -0.091554 0.269876
vertex 0.051387 -0.162136 0.269876
endloop
endfacet
facet normal -0.226004 -0.966827 0.119028
outer loop
vertex 0.051387 -0.162136 0.269876
vertex -0.078884 -0.131684 0.269876
vertex -0.099200 -0.160002 0.001283
endloop
endfacet
facet normal -0.966826 0.226008 0.119033
outer loop
vertex -0.119012 0.112233 0.269876
vertex -0.147331 0.132550 0.001283
vertex -0.183855 -0.023694 0.001283
endloop
endfacet
facet normal -0.843467 -0.523827 0.119033
outer loop
vertex -0.078884 -0.131684 0.269876
vertex -0.149464 -0.018036 0.269876
vertex -0.183855 -0.023694 0.001283
endloop
endfacet
facet normal 0.974210 -0.220756 0.046705
outer loop
vertex 0.202846 0.034437 1.495254
vertex 0.190979 0.042334 1.780114
vertex 0.167022 -0.061668 1.788253
endloop
endfacet
facet normal 0.504342 -0.857422 0.102309
outer loop
vertex 0.054295 -0.158193 1.535005
vertex 0.169438 -0.089992 1.538969
vertex 0.167022 -0.061668 1.788253
endloop
endfacet
facet normal -0.832391 0.544514 0.103099
outer loop
vertex -0.374577 -0.413239 1.651732
vertex -0.608545 -0.850364 2.071402
vertex -0.589625 -0.831274 2.123333
endloop
endfacet
facet normal -0.741416 -0.215508 -0.635499
outer loop
vertex -0.374577 -0.413239 1.651732
vertex -0.330099 -0.492371 1.626676
vertex -0.597422 -0.872851 2.067580
endloop
endfacet
facet normal -0.945304 0.305257 0.114971
outer loop
vertex -0.149464 -0.018036 1.527383
vertex -0.116895 -0.013304 1.782605
vertex -0.074228 0.119926 1.779682
endloop
endfacet
facet normal -0.139158 -0.359515 0.922705
outer loop
vertex -0.094437 0.424277 1.810814
vertex -0.031774 0.459134 1.833846
vertex -0.087268 0.825709 1.968306
endloop
endfacet
facet normal 0.836124 0.548312 0.015839
outer loop
vertex 0.202846 0.034437 1.495254
vertex 0.124904 0.152363 1.527383
vertex 0.121136 0.151153 1.768172
endloop
endfacet
facet normal -0.985697 -0.080285 0.148173
outer loop
vertex -0.126992 0.424272 1.594244
vertex -0.094437 0.424277 1.810814
vertex -0.103866 0.817896 1.961365
endloop
endfacet
facet normal -0.134718 -0.886959 0.441764
outer loop
vertex -0.573347 -0.875617 2.071402
vertex -0.561325 -0.851578 2.123333
vertex -0.576651 -0.844009 2.133856
endloop
endfacet
facet normal -0.772439 -0.457033 0.440975
outer loop
vertex -0.608545 -0.850364 2.071402
vertex -0.597422 -0.872851 2.067580
vertex -0.576651 -0.844009 2.133856
endloop
endfacet
facet normal -0.124756 0.553391 0.823525
outer loop
vertex -0.335863 -0.386332 1.862784
vertex -0.589625 -0.831274 2.123333
vertex -0.576651 -0.844009 2.133856
endloop
endfacet
facet normal 0.514636 0.134754 0.846753
outer loop
vertex -0.230735 -0.461754 1.862784
vertex -0.293370 -0.441589 1.897643
vertex -0.576651 -0.844009 2.133856
endloop
endfacet
facet normal 0.016529 -0.757668 -0.652431
outer loop
vertex -0.243822 -0.507049 1.651732
vertex -0.573347 -0.875617 2.071402
vertex -0.597422 -0.872851 2.067580
endloop
endfacet
facet normal 0.786609 -0.611909 0.082549
outer loop
vertex -0.243822 -0.507049 1.651732
vertex -0.230735 -0.461754 1.862784
vertex -0.561325 -0.851578 2.123333
endloop
endfacet
facet normal -0.852765 0.514333 0.090853
outer loop
vertex -0.149464 -0.018036 1.527383
vertex -0.374577 -0.413239 1.651732
vertex -0.335863 -0.386332 1.862784
endloop
endfacet
facet normal -0.497467 0.007860 -0.867447
outer loop
vertex -0.149464 -0.018036 1.527383
vertex -0.080518 -0.138720 1.486750
vertex -0.330099 -0.492371 1.626676
endloop
endfacet
facet normal -0.274326 0.353272 0.894396
outer loop
vertex -0.116895 -0.013304 1.782605
vertex -0.335863 -0.386332 1.862784
vertex -0.293370 -0.441589 1.897643
endloop
endfacet
facet normal 0.436747 -0.145568 0.887728
outer loop
vertex 0.044588 -0.129159 1.782605
vertex -0.052751 -0.099754 1.835316
vertex -0.293370 -0.441589 1.897643
endloop
endfacet
facet normal 0.178761 -0.446175 -0.876911
outer loop
vertex 0.054295 -0.158193 1.535005
vertex -0.243822 -0.507049 1.651732
vertex -0.330099 -0.492371 1.626676
endloop
endfacet
facet normal 0.778276 -0.619394 0.103143
outer loop
vertex 0.054295 -0.158193 1.535005
vertex 0.044588 -0.129159 1.782605
vertex -0.230735 -0.461754 1.862784
endloop
endfacet
facet normal -0.526994 0.848534 -0.047616
outer loop
vertex -0.098071 0.097147 0.769139
vertex -0.119012 0.112233 1.269747
vertex -0.005365 0.182815 1.269747
endloop
endfacet
facet normal 0.227368 0.972645 -0.047596
outer loop
vertex -0.005365 0.182815 1.269747
vertex 0.124904 0.152363 1.269747
vertex 0.109928 0.131367 0.769139
endloop
endfacet
facet normal 0.848539 0.526997 -0.047487
outer loop
vertex 0.124904 0.152363 1.269747
vertex 0.195486 0.038716 1.269747
vertex 0.170116 0.034456 0.769139
endloop
endfacet
facet normal 0.983018 -0.175270 -0.054374
outer loop
vertex 0.195486 0.038716 1.269747
vertex 0.169424 -0.094798 1.228947
vertex 0.146021 -0.078014 0.751743
endloop
endfacet
facet normal 0.480547 -0.875283 -0.054352
outer loop
vertex 0.146021 -0.078014 0.751743
vertex 0.169424 -0.094798 1.228947
vertex 0.051387 -0.162136 1.269747
endloop
endfacet
facet normal -0.172381 -0.983511 -0.054692
outer loop
vertex 0.051387 -0.162136 1.269747
vertex -0.080183 -0.137279 1.237439
vertex -0.064404 -0.113237 0.755364
endloop
endfacet
facet normal -0.972648 0.227369 -0.047540
outer loop
vertex -0.124038 -0.013939 0.769139
vertex -0.149464 -0.018036 1.269747
vertex -0.119012 0.112233 1.269747
endloop
endfacet
facet normal -0.869605 -0.490901 -0.052946
outer loop
vertex -0.064404 -0.113237 0.755364
vertex -0.080183 -0.137279 1.237439
vertex -0.149464 -0.018036 1.269747
endloop
endfacet
facet normal 0.904902 -0.233052 0.356146
outer loop
vertex 0.785889 -0.470905 1.727242
vertex 0.762527 -0.457400 1.795438
vertex 0.748210 -0.490129 1.810398
endloop
endfacet
facet normal 0.506875 -0.795837 0.331242
outer loop
vertex 0.748210 -0.490129 1.810398
vertex 0.721503 -0.514508 1.792693
vertex 0.744865 -0.528013 1.724497
endloop
endfacet
facet normal 0.671522 0.740883 0.012249
outer loop
vertex 0.467221 -0.182962 1.385459
vertex 0.458009 -0.177637 1.568401
vertex 0.762527 -0.457400 1.795438
endloop
endfacet
facet normal -0.289590 0.403288 0.868042
outer loop
vertex 0.458009 -0.177637 1.568401
vertex 0.432128 -0.265910 1.600778
vertex 0.748210 -0.490129 1.810398
endloop
endfacet
facet normal 0.738700 0.017733 -0.673802
outer loop
vertex 0.467221 -0.182962 1.385459
vertex 0.785889 -0.470905 1.727242
vertex 0.781119 -0.510558 1.720969
endloop
endfacet
facet normal -0.534018 -0.028650 0.844988
outer loop
vertex 0.354551 -0.321812 1.567319
vertex 0.721503 -0.514508 1.792693
vertex 0.748210 -0.490129 1.810398
endloop
endfacet
facet normal 0.024129 -0.548648 -0.835705
outer loop
vertex 0.051387 -0.162136 1.269747
vertex 0.169424 -0.094798 1.228947
vertex 0.449554 -0.279467 1.358272
endloop
endfacet
facet normal -0.467683 -0.883894 0.002178
outer loop
vertex 0.051387 -0.162136 1.269747
vertex 0.363763 -0.327137 1.384377
vertex 0.354551 -0.321812 1.567319
endloop
endfacet
facet normal 0.640243 0.768147 -0.006320
outer loop
vertex 0.195486 0.038716 1.269747
vertex 0.202846 0.034437 1.495254
vertex 0.458009 -0.177637 1.568401
endloop
endfacet
facet normal -0.000014 0.331467 0.943467
outer loop
vertex 0.202846 0.034437 1.495254
vertex 0.169438 -0.089992 1.538969
vertex 0.432128 -0.265910 1.600778
endloop
endfacet
facet normal 0.489727 0.152197 -0.858489
outer loop
vertex 0.195486 0.038716 1.269747
vertex 0.467221 -0.182962 1.385459
vertex 0.449554 -0.279467 1.358272
endloop
endfacet
facet normal -0.232723 -0.240985 0.942214
outer loop
vertex 0.054295 -0.158193 1.535005
vertex 0.354551 -0.321812 1.567319
vertex 0.432128 -0.265910 1.600778
endloop
endfacet
facet normal 0.251062 0.947055 0.200137
outer loop
vertex -0.071049 0.834617 1.905807
vertex -0.094279 0.841241 1.903603
vertex -0.087268 0.825709 1.968306
endloop
endfacet
facet normal -0.494463 0.834528 0.243043
outer loop
vertex -0.114220 0.827860 1.906087
vertex -0.103866 0.817896 1.961365
vertex -0.087268 0.825709 1.968306
endloop
endfacet
facet normal 0.965922 0.257809 0.023005
outer loop
vertex 0.038659 0.451390 1.594135
vertex -0.071049 0.834617 1.905807
vertex -0.069364 0.823547 1.959115
endloop
endfacet
facet normal 0.289352 0.653724 -0.699229
outer loop
vertex 0.038659 0.451390 1.594135
vertex -0.050328 0.473945 1.578398
vertex -0.094279 0.841241 1.903603
endloop
endfacet
facet normal -0.457623 0.552667 -0.696520
outer loop
vertex -0.126992 0.424272 1.594244
vertex -0.114220 0.827860 1.906087
vertex -0.094279 0.841241 1.903603
endloop
endfacet
facet normal 0.419827 -0.241986 0.874750
outer loop
vertex 0.038210 0.445532 1.802914
vertex -0.069364 0.823547 1.959115
vertex -0.087268 0.825709 1.968306
endloop
endfacet
facet normal -0.278378 -0.117376 0.953273
outer loop
vertex -0.074228 0.119926 1.779682
vertex 0.017872 0.172063 1.812997
vertex -0.031774 0.459134 1.833846
endloop
endfacet
facet normal -0.980756 -0.083189 0.176624
outer loop
vertex -0.119012 0.112233 1.527383
vertex -0.074228 0.119926 1.779682
vertex -0.094437 0.424277 1.810814
endloop
endfacet
facet normal 0.961368 0.275092 0.009786
outer loop
vertex 0.124904 0.152363 1.527383
vertex 0.038659 0.451390 1.594135
vertex 0.038210 0.445532 1.802914
endloop
endfacet
facet normal 0.242773 0.279647 -0.928902
outer loop
vertex 0.124904 0.152363 1.527383
vertex -0.006103 0.185096 1.502998
vertex -0.050328 0.473945 1.578398
endloop
endfacet
facet normal -0.315886 0.191057 -0.929362
outer loop
vertex -0.119012 0.112233 1.527383
vertex -0.126992 0.424272 1.594244
vertex -0.050328 0.473945 1.578398
endloop
endfacet
facet normal 0.405272 0.006275 0.914175
outer loop
vertex 0.121136 0.151153 1.768172
vertex 0.038210 0.445532 1.802914
vertex -0.031774 0.459134 1.833846
endloop
endfacet
facet normal -0.438771 0.216484 0.872132
outer loop
vertex 0.304815 0.018783 1.950742
vertex 0.289266 -0.047519 1.959377
vertex 0.418975 -0.056741 2.026923
endloop
endfacet
facet normal 0.465812 -0.861817 0.200727
outer loop
vertex 0.044588 -0.129159 1.782605
vertex 0.167022 -0.061668 1.788253
vertex 0.152863 -0.028229 1.964680
endloop
endfacet
facet normal -0.180985 -0.956527 0.228693
outer loop
vertex 0.044588 -0.129159 1.782605
vertex 0.057537 -0.096108 1.931091
vertex -0.033016 -0.070544 1.966352
endloop
endfacet
facet normal -0.843654 -0.482870 0.234700
outer loop
vertex -0.116895 -0.013304 1.782605
vertex -0.052751 -0.099754 1.835316
vertex -0.033016 -0.070544 1.966352
endloop
endfacet
facet normal -0.948254 0.289019 0.131460
outer loop
vertex -0.116895 -0.013304 1.782605
vertex -0.089414 0.009321 1.931091
vertex -0.056233 0.121781 1.923187
endloop
endfacet
facet normal 0.199132 0.979971 0.001605
outer loop
vertex 0.121136 0.151153 1.768172
vertex 0.017872 0.172063 1.812997
vertex 0.026974 0.170009 1.937792
endloop
endfacet
facet normal 0.842429 0.538784 0.005111
outer loop
vertex 0.121136 0.151153 1.768172
vertex 0.121207 0.149721 1.907429
vertex 0.174537 0.065904 1.952919
endloop
endfacet
facet normal -0.507663 0.859952 0.052543
outer loop
vertex -0.074228 0.119926 1.779682
vertex -0.056233 0.121781 1.923187
vertex 0.026974 0.170009 1.937792
endloop
endfacet
facet normal -0.863196 -0.234599 0.447052
outer loop
vertex -0.613066 0.053973 2.264631
vertex -0.584553 0.062966 2.324405
vertex -0.587331 0.088821 2.332609
endloop
endfacet
facet normal -0.780050 0.520734 0.346927
outer loop
vertex -0.607658 0.112016 2.252089
vertex -0.625210 0.081918 2.257801
vertex -0.587331 0.088821 2.332609
endloop
endfacet
facet normal -0.079395 -0.971538 0.223181
outer loop
vertex -0.240937 -0.033603 2.026265
vertex -0.209850 0.001463 2.189971
vertex -0.584553 0.062966 2.324405
endloop
endfacet
facet normal 0.029103 0.998370 0.049088
outer loop
vertex -0.254718 0.114457 1.993195
vertex -0.607658 0.112016 2.252089
vertex -0.581969 0.108006 2.318415
endloop
endfacet
facet normal -0.583892 0.124311 -0.802258
outer loop
vertex -0.254718 0.114457 1.993195
vertex -0.282747 0.029147 2.000376
vertex -0.625210 0.081918 2.257801
endloop
endfacet
facet normal 0.318585 0.504622 0.802409
outer loop
vertex -0.226475 0.115173 2.172764
vertex -0.581969 0.108006 2.318415
vertex -0.587331 0.088821 2.332609
endloop
endfacet
facet normal 0.014386 -0.248844 0.968437
outer loop
vertex -0.000663 -0.022658 2.181168
vertex -0.038332 0.057178 2.202242
vertex -0.236017 0.063504 2.206804
endloop
endfacet
facet normal -0.320309 -0.535749 -0.781265
outer loop
vertex -0.033016 -0.070544 1.966352
vertex -0.240937 -0.033603 2.026265
vertex -0.282747 0.029147 2.000376
endloop
endfacet
facet normal -0.101850 -0.967600 0.231033
outer loop
vertex -0.033016 -0.070544 1.966352
vertex -0.000663 -0.022658 2.181168
vertex -0.209850 0.001463 2.189971
endloop
endfacet
facet normal -0.036269 0.999341 0.001720
outer loop
vertex -0.056233 0.121781 1.923187
vertex -0.254718 0.114457 1.993195
vertex -0.226475 0.115173 2.172764
endloop
endfacet
facet normal -0.334237 0.032415 -0.941931
outer loop
vertex -0.056233 0.121781 1.923187
vertex -0.089414 0.009321 1.931091
vertex -0.282747 0.029147 2.000376
endloop
endfacet
facet normal 0.033694 0.545490 0.837440
outer loop
vertex -0.026733 0.124821 2.158443
vertex -0.226475 0.115173 2.172764
vertex -0.236017 0.063504 2.206804
endloop
endfacet
facet normal -0.526983 0.848533 0.047746
outer loop
vertex -0.098071 0.097147 0.769139
vertex -0.001158 0.157335 0.769139
vertex -0.005365 0.182815 0.269876
endloop
endfacet
facet normal 0.227369 0.972639 0.047723
outer loop
vertex -0.005365 0.182815 0.269876
vertex -0.001158 0.157335 0.769139
vertex 0.109928 0.131367 0.769139
endloop
endfacet
facet normal 0.848534 0.526995 0.047615
outer loop
vertex 0.124904 0.152363 0.269876
vertex 0.109928 0.131367 0.769139
vertex 0.170116 0.034456 0.769139
endloop
endfacet
facet normal 0.975408 -0.215858 0.044552
outer loop
vertex 0.170116 0.034456 0.769139
vertex 0.146021 -0.078014 0.751743
vertex 0.165034 -0.091554 0.269876
endloop
endfacet
facet normal 0.516775 -0.854969 0.044414
outer loop
vertex 0.165034 -0.091554 0.269876
vertex 0.146021 -0.078014 0.751743
vertex 0.047237 -0.136819 0.769139
endloop
endfacet
facet normal -0.211600 -0.976392 0.043411
outer loop
vertex 0.047237 -0.136819 0.769139
vertex -0.064404 -0.113237 0.755364
vertex -0.078884 -0.131684 0.269876
endloop
endfacet
facet normal -0.972643 0.227361 0.047666
outer loop
vertex -0.124038 -0.013939 0.769139
vertex -0.098071 0.097147 0.769139
vertex -0.119012 0.112233 0.269876
endloop
endfacet
facet normal -0.853629 -0.518919 0.045177
outer loop
vertex -0.078884 -0.131684 0.269876
vertex -0.064404 -0.113237 0.755364
vertex -0.124038 -0.013939 0.769139
endloop
endfacet
facet normal 0.922132 -0.184170 0.340226
outer loop
vertex 0.438402 -0.073747 1.964467
vertex 0.447606 -0.034851 1.960576
vertex 0.427656 -0.021651 2.021793
endloop
endfacet
facet normal 0.358210 0.929245 -0.090495
outer loop
vertex 0.322911 0.000101 1.830537
vertex 0.304815 0.018783 1.950742
vertex 0.427656 -0.021651 2.021793
endloop
endfacet
facet normal 0.675201 -0.215636 -0.705411
outer loop
vertex 0.305908 -0.073212 1.836673
vertex 0.322911 0.000101 1.830537
vertex 0.447606 -0.034851 1.960576
endloop
endfacet
facet normal -0.196878 -0.959791 0.200101
outer loop
vertex 0.305908 -0.073212 1.836673
vertex 0.438402 -0.073747 1.964467
vertex 0.418975 -0.056741 2.026923
endloop
endfacet
facet normal 0.054340 0.111464 0.992282
outer loop
vertex 0.174537 0.065904 1.952919
vertex 0.152863 -0.028229 1.964680
vertex 0.289266 -0.047519 1.959377
endloop
endfacet
facet normal 0.337157 0.936575 -0.095666
outer loop
vertex 0.190979 0.042334 1.780114
vertex 0.174537 0.065904 1.952919
vertex 0.304815 0.018783 1.950742
endloop
endfacet
facet normal 0.312257 -0.145397 -0.938805
outer loop
vertex 0.167022 -0.061668 1.788253
vertex 0.190979 0.042334 1.780114
vertex 0.322911 0.000101 1.830537
endloop
endfacet
facet normal -0.144926 -0.972200 0.183913
outer loop
vertex 0.167022 -0.061668 1.788253
vertex 0.305908 -0.073212 1.836673
vertex 0.289266 -0.047519 1.959377
endloop
endfacet
facet normal -0.884836 -0.358557 0.297493
outer loop
vertex -0.520062 0.009152 1.450663
vertex -0.494658 0.011089 1.528557
vertex -0.509460 0.050803 1.532397
endloop
endfacet
facet normal 0.183802 -0.041356 0.982093
outer loop
vertex -0.239884 0.002144 1.479896
vertex -0.224570 0.089821 1.480722
vertex -0.509460 0.050803 1.532397
endloop
endfacet
facet normal -0.464402 -0.087890 -0.881253
outer loop
vertex -0.245350 0.001727 1.306636
vertex -0.520062 0.009152 1.450663
vertex -0.534865 0.048866 1.454503
endloop
endfacet
facet normal -0.124286 0.992120 0.015865
outer loop
vertex -0.230037 0.089404 1.307463
vertex -0.534865 0.048866 1.454503
vertex -0.509460 0.050803 1.532397
endloop
endfacet
facet normal -0.222495 -0.974889 0.009366
outer loop
vertex -0.149464 -0.018036 1.527383
vertex -0.239884 0.002144 1.479896
vertex -0.245350 0.001727 1.306636
endloop
endfacet
facet normal -0.414794 0.063898 0.907669
outer loop
vertex -0.119012 0.112233 1.527383
vertex -0.224570 0.089821 1.480722
vertex -0.239884 0.002144 1.479896
endloop
endfacet
facet normal -0.343445 0.080285 -0.935735
outer loop
vertex -0.119012 0.112233 1.269747
vertex -0.149464 -0.018036 1.269747
vertex -0.245350 0.001727 1.306636
endloop
endfacet
facet normal -0.201407 0.979508 0.000000
outer loop
vertex -0.119012 0.112233 1.527383
vertex -0.119012 0.112233 1.269747
vertex -0.230037 0.089404 1.307463
endloop
endfacet
facet normal -0.514942 0.857052 -0.017207
outer loop
vertex -0.111416 0.102353 1.539427
vertex -0.007281 0.164772 1.532035
vertex -0.005230 0.161945 1.329843
endloop
endfacet
facet normal 0.248237 0.968637 -0.011025
outer loop
vertex -0.005230 0.161945 1.329843
vertex -0.007281 0.164772 1.532035
vertex 0.110528 0.134885 1.558780
endloop
endfacet
facet normal 0.832042 0.554463 -0.016635
outer loop
vertex 0.110528 0.134885 1.558780
vertex 0.179788 0.030095 1.530230
vertex 0.173248 0.033897 1.329843
endloop
endfacet
facet normal 0.206275 -0.728799 -0.652918
outer loop
vertex 0.322779 -0.291201 1.431704
vertex 0.399014 -0.248842 1.408507
vertex 0.693644 -0.454190 1.730802
endloop
endfacet
facet normal -0.474456 -0.880200 0.011775
outer loop
vertex 0.322779 -0.291201 1.431704
vertex 0.661429 -0.469701 1.733937
vertex 0.640669 -0.457700 1.794537
endloop
endfacet
facet normal -0.142214 -0.989822 -0.005296
outer loop
vertex 0.047785 -0.141076 1.565553
vertex -0.073542 -0.123393 1.518601
vertex -0.071714 -0.122492 1.301134
endloop
endfacet
facet normal 0.970612 -0.239377 -0.024728
outer loop
vertex 0.129979 0.000255 2.134696
vertex 0.146430 0.069961 2.105641
vertex 0.196683 0.212381 2.699473
endloop
endfacet
facet normal -0.054608 -0.998209 -0.024435
outer loop
vertex -0.219910 0.007643 1.361346
vertex -0.220884 0.004370 1.497230
vertex -0.447961 0.015734 1.540470
endloop
endfacet
facet normal -0.854753 -0.518951 -0.009335
outer loop
vertex -0.071714 -0.122492 1.301134
vertex -0.073542 -0.123393 1.518601
vertex -0.139969 -0.014357 1.539427
endloop
endfacet
facet normal 0.000000 0.000000 -1.000000
outer loop
vertex -0.112558 0.103774 0.202678
vertex -0.075107 -0.123860 0.202678
vertex -0.140978 -0.017799 0.202678
endloop
endfacet
facet normal 0.000000 0.000000 -1.000000
outer loop
vertex 0.152528 -0.086410 0.202678
vertex 0.046467 -0.152280 0.202678
vertex -0.075107 -0.123860 0.202678
endloop
endfacet
facet normal 0.000000 0.000000 -1.000000
outer loop
vertex 0.115077 0.141225 0.202678
vertex 0.180947 0.035164 0.202678
vertex 0.152528 -0.086410 0.202678
endloop
endfacet
facet normal -0.000000 0.000000 -1.000000
outer loop
vertex -0.112558 0.103774 0.202678
vertex -0.006497 0.169644 0.202678
vertex 0.115077 0.141225 0.202678
endloop
endfacet
facet normal 0.000000 0.000000 -1.000000
outer loop
vertex -0.112558 0.103774 0.202678
vertex 0.152528 -0.086410 0.202678
vertex -0.075107 -0.123860 0.202678
endloop
endfacet
facet normal -0.000000 0.000000 -1.000000
outer loop
vertex -0.112558 0.103774 0.202678
vertex 0.115077 0.141225 0.202678
vertex 0.152528 -0.086410 0.202678
endloop
endfacet
facet normal 0.058832 0.082005 0.994894
outer loop
vertex 0.156337 0.241326 2.699473
vertex 0.196683 0.212381 2.699473
vertex 0.182474 0.235166 2.698435
endloop
endfacet
facet normal 0.058906 0.082111 0.994881
outer loop
vertex 0.167885 0.172241 2.704491
vertex 0.190640 0.186315 2.701982
vertex 0.196683 0.212381 2.699473
endloop
endfacet
facet normal 0.058893 0.082087 0.994884
outer loop
vertex 0.127539 0.201187 2.704491
vertex 0.141748 0.178400 2.705530
vertex 0.167885 0.172241 2.704491
endloop
endfacet
facet normal 0.058916 0.082106 0.994881
outer loop
vertex 0.156337 0.241326 2.699473
vertex 0.133582 0.227251 2.701982
vertex 0.127539 0.201187 2.704491
endloop
endfacet
facet normal 0.058907 0.082110 0.994881
outer loop
vertex 0.156337 0.241326 2.699473
vertex 0.167885 0.172241 2.704491
vertex 0.196683 0.212381 2.699473
endloop
endfacet
facet normal 0.058910 0.082110 0.994881
outer loop
vertex 0.156337 0.241326 2.699473
vertex 0.127539 0.201187 2.704491
vertex 0.167885 0.172241 2.704491
endloop
endfacet
facet normal 0.530851 -0.820436 0.212324
outer loop
vertex 0.129979 0.000255 2.134696
vertex 0.190640 0.186315 2.701982
vertex 0.167885 0.172241 2.704491
endloop
endfacet
facet normal -0.197378 -0.902280 0.383317
outer loop
vertex 0.063049 -0.029628 2.175335
vertex 0.167885 0.172241 2.704491
vertex 0.141748 0.178400 2.705530
endloop
endfacet
facet normal -0.783438 -0.469977 0.406627
outer loop
vertex -0.011461 -0.007679 2.195277
vertex 0.141748 0.178400 2.705530
vertex 0.127539 0.201187 2.704491
endloop
endfacet
facet normal -0.915935 0.331591 0.226077
outer loop
vertex -0.034289 0.114565 2.175907
vertex -0.044783 0.059354 2.214370
vertex 0.127539 0.201187 2.704491
endloop
endfacet
facet normal 0.157544 0.967776 -0.196442
outer loop
vertex 0.106784 0.130663 2.114548
vertex 0.030540 0.149733 2.147350
vertex 0.156337 0.241326 2.699473
endloop
endfacet
facet normal 0.805672 0.556135 -0.203976
outer loop
vertex 0.146430 0.069961 2.105641
vertex 0.106784 0.130663 2.114548
vertex 0.182474 0.235166 2.698435
endloop
endfacet
facet normal -0.527097 0.849693 -0.013808
outer loop
vertex -0.034289 0.114565 2.175907
vertex 0.133582 0.227251 2.701982
vertex 0.156337 0.241326 2.699473
endloop
endfacet
facet normal 0.977063 -0.199077 0.075607
outer loop
vertex 0.157213 0.067149 1.958889
vertex 0.146430 0.069961 2.105641
vertex 0.129979 0.000255 2.134696
endloop
endfacet
facet normal 0.460780 -0.880492 0.111427
outer loop
vertex 0.137953 -0.016498 1.969340
vertex 0.129979 0.000255 2.134696
vertex 0.063049 -0.029628 2.175335
endloop
endfacet
facet normal -0.222660 -0.950955 0.214726
outer loop
vertex 0.051532 -0.078154 1.948486
vertex 0.063049 -0.029628 2.175335
vertex -0.011461 -0.007679 2.195277
endloop
endfacet
facet normal 0.324600 -0.130434 0.936815
outer loop
vertex -0.187740 0.010423 2.203100
vertex -0.210497 0.062903 2.218292
vertex -0.522715 0.087441 2.329890
endloop
endfacet
facet normal -0.534652 -0.502043 -0.679780
outer loop
vertex -0.214926 -0.020889 2.056804
vertex -0.545602 0.056931 2.259410
vertex -0.556369 0.081136 2.250002
endloop
endfacet
facet normal 0.165714 0.986172 -0.001737
outer loop
vertex 0.108295 0.136246 1.908191
vertex 0.023507 0.150565 1.948739
vertex 0.030540 0.149733 2.147350
endloop
endfacet
facet normal 0.838463 0.544559 0.020873
outer loop
vertex 0.108295 0.136246 1.908191
vertex 0.106784 0.130663 2.114548
vertex 0.146430 0.069961 2.105641
endloop
endfacet
facet normal -0.500954 0.865420 0.009693
outer loop
vertex 0.023507 0.150565 1.948739
vertex -0.050432 0.107710 1.953646
vertex -0.034289 0.114565 2.175907
endloop
endfacet
facet normal -0.527346 0.849114 0.030188
outer loop
vertex -0.112558 0.103774 0.202678
vertex -0.106218 0.099226 0.441352
vertex -0.005230 0.161945 0.441352
endloop
endfacet
facet normal 0.227523 0.973305 0.030191
outer loop
vertex -0.005230 0.161945 0.441352
vertex 0.110528 0.134885 0.441352
vertex 0.115077 0.141225 0.202678
endloop
endfacet
facet normal 0.849110 0.527352 0.030192
outer loop
vertex 0.115077 0.141225 0.202678
vertex 0.110528 0.134885 0.441352
vertex 0.173248 0.033897 0.441352
endloop
endfacet
facet normal 0.973305 -0.227523 0.030191
outer loop
vertex 0.173248 0.033897 0.441352
vertex 0.146188 -0.081861 0.441352
vertex 0.152528 -0.086410 0.202678
endloop
endfacet
facet normal 0.527346 -0.849114 0.030193
outer loop
vertex 0.146188 -0.081861 0.441352
vertex 0.045200 -0.144580 0.441352
vertex 0.046467 -0.152280 0.202678
endloop
endfacet
facet normal -0.227523 -0.973305 0.030191
outer loop
vertex 0.045200 -0.144580 0.441352
vertex -0.070558 -0.117520 0.441352
vertex -0.075107 -0.123860 0.202678
endloop
endfacet
facet normal -0.973305 0.227521 0.030190
outer loop
vertex -0.133278 -0.016533 0.441352
vertex -0.106218 0.099226 0.441352
vertex -0.112558 0.103774 0.202678
endloop
endfacet
facet normal -0.849108 -0.527356 0.030191
outer loop
vertex -0.070558 -0.117520 0.441352
vertex -0.133278 -0.016533 0.441352
vertex -0.140978 -0.017799 0.202678
endloop
endfacet
facet normal 0.974291 -0.220533 0.046065
outer loop
vertex 0.179788 0.030095 1.530230
vertex 0.169252 0.037148 1.786836
vertex 0.147960 -0.055284 1.794658
endloop
endfacet
facet normal 0.504477 -0.857551 0.100544
outer loop
vertex 0.047785 -0.141076 1.565553
vertex 0.150101 -0.080473 1.569075
vertex 0.147960 -0.055284 1.794658
endloop
endfacet
facet normal -0.832378 0.544529 0.103121
outer loop
vertex -0.333315 -0.367712 1.669277
vertex -0.541221 -0.756144 2.042199
vertex -0.524407 -0.739181 2.088346
endloop
endfacet
facet normal -0.741409 -0.215517 -0.635503
outer loop
vertex -0.333315 -0.367712 1.669277
vertex -0.293790 -0.438030 1.647012
vertex -0.531336 -0.776126 2.038803
endloop
endfacet
facet normal -0.945770 0.297739 0.129884
outer loop
vertex -0.139969 -0.014357 1.539427
vertex -0.104336 -0.012327 1.794241
vertex -0.066422 0.106062 1.798929
endloop
endfacet
facet normal -0.150269 -0.342655 0.927365
outer loop
vertex -0.084381 0.376511 1.817751
vertex -0.028697 0.407483 1.838218
vertex -0.078009 0.733225 1.950587
endloop
endfacet
facet normal 0.836067 0.548414 0.015332
outer loop
vertex 0.179788 0.030095 1.530230
vertex 0.110528 0.134885 1.558780
vertex 0.107179 0.133810 1.779859
endloop
endfacet
facet normal -0.986836 -0.075438 0.143054
outer loop
vertex -0.113309 0.376505 1.618193
vertex -0.084381 0.376511 1.817751
vertex -0.092757 0.726282 1.944419
endloop
endfacet
facet normal -0.134679 -0.886965 0.441764
outer loop
vertex -0.509942 -0.778584 2.042199
vertex -0.499259 -0.757222 2.088346
vertex -0.512879 -0.750497 2.097696
endloop
endfacet
facet normal -0.772424 -0.457055 0.440978
outer loop
vertex -0.541221 -0.756144 2.042199
vertex -0.531336 -0.776126 2.038803
vertex -0.512879 -0.750497 2.097696
endloop
endfacet
facet normal -0.137765 0.543712 0.827888
outer loop
vertex -0.298911 -0.343802 1.866206
vertex -0.524407 -0.739181 2.088346
vertex -0.512879 -0.750497 2.097696
endloop
endfacet
facet normal 0.511501 0.117252 0.851245
outer loop
vertex -0.205495 -0.410823 1.866206
vertex -0.261153 -0.392904 1.897182
vertex -0.512879 -0.750497 2.097696
endloop
endfacet
facet normal 0.016511 -0.757662 -0.652439
outer loop
vertex -0.217124 -0.451072 1.669277
vertex -0.509942 -0.778584 2.042199
vertex -0.531336 -0.776126 2.038803
endloop
endfacet
facet normal 0.784778 -0.614685 0.079289
outer loop
vertex -0.217124 -0.451072 1.669277
vertex -0.205495 -0.410823 1.866206
vertex -0.499259 -0.757222 2.088346
endloop
endfacet
facet normal -0.859623 0.503102 0.089095
outer loop
vertex -0.139969 -0.014357 1.539427
vertex -0.333315 -0.367712 1.669277
vertex -0.298911 -0.343802 1.866206
endloop
endfacet
facet normal -0.414798 -0.079574 -0.906427
outer loop
vertex -0.139969 -0.014357 1.539427
vertex -0.073542 -0.123393 1.518601
vertex -0.293790 -0.438030 1.647012
endloop
endfacet
facet normal -0.272905 0.354373 0.894395
outer loop
vertex -0.104336 -0.012327 1.794241
vertex -0.298911 -0.343802 1.866206
vertex -0.261153 -0.392904 1.897182
endloop
endfacet
facet normal 0.451199 -0.174250 0.875247
outer loop
vertex 0.039159 -0.115277 1.797640
vertex -0.047371 -0.088279 1.847622
vertex -0.261153 -0.392904 1.897182
endloop
endfacet
facet normal 0.178766 -0.446177 -0.876908
outer loop
vertex 0.047785 -0.141076 1.565553
vertex -0.217124 -0.451072 1.669277
vertex -0.293790 -0.438030 1.647012
endloop
endfacet
facet normal 0.777651 -0.621021 0.097936
outer loop
vertex 0.047785 -0.141076 1.565553
vertex 0.039159 -0.115277 1.797640
vertex -0.205495 -0.410823 1.866206
endloop
endfacet
facet normal -0.523879 0.850410 -0.048515
outer loop
vertex -0.087608 0.085820 0.885000
vertex -0.106285 0.099692 1.329843
vertex -0.005230 0.161945 1.329843
endloop
endfacet
facet normal 0.227369 0.972645 -0.047593
outer loop
vertex -0.005230 0.161945 1.329843
vertex 0.110528 0.134885 1.329843
vertex 0.097220 0.116229 0.885000
endloop
endfacet
facet normal 0.848539 0.526997 -0.047487
outer loop
vertex 0.110528 0.134885 1.329843
vertex 0.173248 0.033897 1.329843
vertex 0.150704 0.030112 0.885000
endloop
endfacet
facet normal 0.983017 -0.175272 -0.054376
outer loop
vertex 0.173248 0.033897 1.329843
vertex 0.150089 -0.084743 1.293588
vertex 0.129292 -0.069829 0.869541
endloop
endfacet
facet normal 0.480545 -0.875284 -0.054352
outer loop
vertex 0.129292 -0.069829 0.869541
vertex 0.150089 -0.084743 1.293588
vertex 0.045200 -0.144580 1.329843
endloop
endfacet
facet normal -0.172380 -0.983511 -0.054692
outer loop
vertex 0.045200 -0.144580 1.329843
vertex -0.071714 -0.122492 1.301134
vertex -0.057692 -0.101128 0.872759
endloop
endfacet
facet normal -0.970548 0.235654 -0.050045
outer loop
vertex -0.110683 -0.012892 0.885000
vertex -0.133738 -0.013374 1.329843
vertex -0.106285 0.099692 1.329843
endloop
endfacet
facet normal -0.874056 -0.482959 -0.052697
outer loop
vertex -0.057692 -0.101128 0.872759
vertex -0.071714 -0.122492 1.301134
vertex -0.133738 -0.013374 1.329843
endloop
endfacet
facet normal 0.904906 -0.233049 0.356137
outer loop
vertex 0.697883 -0.418954 1.736376
vertex 0.677124 -0.406954 1.796975
vertex 0.664402 -0.436037 1.810269
endloop
endfacet
facet normal 0.506859 -0.795847 0.331243
outer loop
vertex 0.664402 -0.436037 1.810269
vertex 0.640669 -0.457700 1.794537
vertex 0.661429 -0.469701 1.733937
endloop
endfacet
facet normal 0.671520 0.740885 0.012253
outer loop
vertex 0.414713 -0.163086 1.432666
vertex 0.406527 -0.158355 1.595229
vertex 0.677124 -0.406954 1.796975
endloop
endfacet
facet normal -0.289585 0.403292 0.868042
outer loop
vertex 0.406527 -0.158355 1.595229
vertex 0.383529 -0.236795 1.624000
vertex 0.664402 -0.436037 1.810269
endloop
endfacet
facet normal 0.738695 0.017722 -0.673807
outer loop
vertex 0.414713 -0.163086 1.432666
vertex 0.697883 -0.418954 1.736376
vertex 0.693644 -0.454190 1.730802
endloop
endfacet
facet normal -0.534008 -0.028614 0.844995
outer loop
vertex 0.314594 -0.286470 1.594267
vertex 0.640669 -0.457700 1.794537
vertex 0.664402 -0.436037 1.810269
endloop
endfacet
facet normal 0.024129 -0.548646 -0.835706
outer loop
vertex 0.045200 -0.144580 1.329843
vertex 0.150089 -0.084743 1.293588
vertex 0.399014 -0.248842 1.408507
endloop
endfacet
facet normal -0.467683 -0.883894 0.002176
outer loop
vertex 0.045200 -0.144580 1.329843
vertex 0.322779 -0.291201 1.431704
vertex 0.314594 -0.286470 1.594267
endloop
endfacet
facet normal 0.640243 0.768146 -0.006321
outer loop
vertex 0.173248 0.033897 1.329843
vertex 0.179788 0.030095 1.530230
vertex 0.406527 -0.158355 1.595229
endloop
endfacet
facet normal -0.000019 0.331466 0.943467
outer loop
vertex 0.179788 0.030095 1.530230
vertex 0.150101 -0.080473 1.569075
vertex 0.383529 -0.236795 1.624000
endloop
endfacet
facet normal 0.489730 0.152198 -0.858487
outer loop
vertex 0.173248 0.033897 1.329843
vertex 0.414713 -0.163086 1.432666
vertex 0.399014 -0.248842 1.408507
endloop
endfacet
facet normal -0.232729 -0.240996 0.942209
outer loop
vertex 0.047785 -0.141076 1.565553
vertex 0.314594 -0.286470 1.594267
vertex 0.383529 -0.236795 1.624000
endloop
endfacet
facet normal 0.251057 0.947059 0.200123
outer loop
vertex -0.063597 0.741140 1.895050
vertex -0.084240 0.747026 1.893092
vertex -0.078009 0.733225 1.950587
endloop
endfacet
facet normal -0.494509 0.834500 0.243044
outer loop
vertex -0.101959 0.735135 1.895299
vertex -0.092757 0.726282 1.944419
vertex -0.078009 0.733225 1.950587
endloop
endfacet
facet normal 0.965923 0.257804 0.023011
outer loop
vertex 0.033890 0.400603 1.618096
vertex -0.063597 0.741140 1.895050
vertex -0.062100 0.731303 1.942420
endloop
endfacet
facet normal 0.289337 0.653726 -0.699233
outer loop
vertex 0.033890 0.400603 1.618096
vertex -0.045185 0.420644 1.604112
vertex -0.084240 0.747026 1.893092
endloop
endfacet
facet normal -0.457638 0.552664 -0.696513
outer loop
vertex -0.113309 0.376505 1.618193
vertex -0.101959 0.735135 1.895299
vertex -0.084240 0.747026 1.893092
endloop
endfacet
facet normal 0.423621 -0.223587 0.877812
outer loop
vertex 0.033491 0.395398 1.810731
vertex -0.062100 0.731303 1.942420
vertex -0.078009 0.733225 1.950587
endloop
endfacet
facet normal -0.303003 -0.085791 0.949120
outer loop
vertex -0.066422 0.106062 1.798929
vertex 0.015419 0.152390 1.829244
vertex -0.028697 0.407483 1.838218
endloop
endfacet
facet normal -0.982177 -0.077149 0.171398
outer loop
vertex -0.111416 0.102353 1.539427
vertex -0.066422 0.106062 1.798929
vertex -0.084381 0.376511 1.817751
endloop
endfacet
facet normal 0.961350 0.275167 0.009426
outer loop
vertex 0.110528 0.134885 1.558780
vertex 0.033890 0.400603 1.618096
vertex 0.033491 0.395398 1.810731
endloop
endfacet
facet normal 0.282700 0.298649 -0.911531
outer loop
vertex 0.110528 0.134885 1.558780
vertex -0.007281 0.164772 1.532035
vertex -0.045185 0.420644 1.604112
endloop
endfacet
facet normal -0.352076 0.256210 -0.900222
outer loop
vertex -0.111416 0.102353 1.539427
vertex -0.113309 0.376505 1.618193
vertex -0.045185 0.420644 1.604112
endloop
endfacet
facet normal 0.405281 0.006277 0.914171
outer loop
vertex 0.107179 0.133810 1.779859
vertex 0.033491 0.395398 1.810731
vertex -0.028697 0.407483 1.838218
endloop
endfacet
facet normal -0.438776 0.216485 0.872129
outer loop
vertex 0.272978 0.025277 1.956954
vertex 0.259161 -0.033639 1.964627
vertex 0.374422 -0.041834 2.024650
endloop
endfacet
facet normal 0.475949 -0.852401 0.216531
outer loop
vertex 0.039159 -0.115277 1.797640
vertex 0.147960 -0.055284 1.794658
vertex 0.137953 -0.016498 1.969340
endloop
endfacet
facet normal -0.153948 -0.956448 0.248008
outer loop
vertex 0.039159 -0.115277 1.797640
vertex 0.051532 -0.078154 1.948486
vertex -0.030165 -0.053715 1.992023
endloop
endfacet
facet normal -0.847995 -0.483631 0.216805
outer loop
vertex -0.104336 -0.012327 1.794241
vertex -0.047371 -0.088279 1.847622
vertex -0.030165 -0.053715 1.992023
endloop
endfacet
facet normal -0.948963 0.300973 0.094257
outer loop
vertex -0.104336 -0.012327 1.794241
vertex -0.080094 0.012388 1.959388
vertex -0.050432 0.107710 1.953646
endloop
endfacet
facet normal 0.199223 0.979953 0.001482
outer loop
vertex 0.107179 0.133810 1.779859
vertex 0.015419 0.152390 1.829244
vertex 0.023507 0.150565 1.948739
endloop
endfacet
facet normal 0.822200 0.568916 -0.017949
outer loop
vertex 0.107179 0.133810 1.779859
vertex 0.108295 0.136246 1.908191
vertex 0.157213 0.067149 1.958889
endloop
endfacet
facet normal -0.498904 0.865622 0.042341
outer loop
vertex -0.066422 0.106062 1.798929
vertex -0.050432 0.107710 1.953646
vertex 0.023507 0.150565 1.948739
endloop
endfacet
facet normal -0.888765 -0.244699 0.387582
outer loop
vertex -0.556369 0.081136 2.250002
vertex -0.545602 0.056931 2.259410
vertex -0.520265 0.064923 2.322556
endloop
endfacet
facet normal -0.795403 0.530435 0.293212
outer loop
vertex -0.540704 0.106128 2.247285
vertex -0.556369 0.081136 2.250002
vertex -0.522715 0.087441 2.329890
endloop
endfacet
facet normal -0.079252 -0.971662 0.222694
outer loop
vertex -0.214926 -0.020889 2.056804
vertex -0.187740 0.010423 2.203100
vertex -0.520265 0.064923 2.322556
endloop
endfacet
facet normal 0.033328 0.999070 0.027363
outer loop
vertex -0.226828 0.101745 2.025018
vertex -0.540704 0.106128 2.247285
vertex -0.517911 0.103448 2.317375
endloop
endfacet
facet normal -0.556995 0.245691 -0.793343
outer loop
vertex -0.226828 0.101745 2.025018
vertex -0.251941 0.031299 2.020833
vertex -0.556369 0.081136 2.250002
endloop
endfacet
facet normal 0.320562 0.521855 0.790511
outer loop
vertex -0.201856 0.104623 2.188435
vertex -0.517911 0.103448 2.317375
vertex -0.522715 0.087441 2.329890
endloop
endfacet
facet normal 0.017114 -0.266017 0.963816
outer loop
vertex -0.011461 -0.007679 2.195277
vertex -0.044783 0.059354 2.214370
vertex -0.210497 0.062903 2.218292
endloop
endfacet
facet normal -0.346191 -0.686369 -0.639570
outer loop
vertex -0.030165 -0.053715 1.992023
vertex -0.214926 -0.020889 2.056804
vertex -0.251941 0.031299 2.020833
endloop
endfacet
facet normal -0.089455 -0.969581 0.227837
outer loop
vertex -0.030165 -0.053715 1.992023
vertex -0.011461 -0.007679 2.195277
vertex -0.187740 0.010423 2.203100
endloop
endfacet
facet normal -0.038526 0.999189 -0.011710
outer loop
vertex -0.050432 0.107710 1.953646
vertex -0.226828 0.101745 2.025018
vertex -0.201856 0.104623 2.188435
endloop
endfacet
facet normal -0.331778 0.046484 -0.942211
outer loop
vertex -0.050432 0.107710 1.953646
vertex -0.080094 0.012388 1.959388
vertex -0.251941 0.031299 2.020833
endloop
endfacet
facet normal 0.026673 0.578106 0.815525
outer loop
vertex -0.034289 0.114565 2.175907
vertex -0.201856 0.104623 2.188435
vertex -0.210497 0.062903 2.218292
endloop
endfacet
facet normal -0.526994 0.848527 0.047744
outer loop
vertex -0.087608 0.085820 0.885000
vertex -0.001492 0.139304 0.885000
vertex -0.005230 0.161945 0.441352
endloop
endfacet
facet normal 0.227365 0.972640 0.047722
outer loop
vertex -0.005230 0.161945 0.441352
vertex -0.001492 0.139304 0.885000
vertex 0.097220 0.116229 0.885000
endloop
endfacet
facet normal 0.848535 0.526993 0.047614
outer loop
vertex 0.110528 0.134885 0.441352
vertex 0.097220 0.116229 0.885000
vertex 0.150704 0.030112 0.885000
endloop
endfacet
facet normal 0.975405 -0.215869 0.044555
outer loop
vertex 0.150704 0.030112 0.885000
vertex 0.129292 -0.069829 0.869541
vertex 0.146188 -0.081861 0.441352
endloop
endfacet
facet normal 0.516772 -0.854970 0.044416
outer loop
vertex 0.146188 -0.081861 0.441352
vertex 0.129292 -0.069829 0.869541
vertex 0.041512 -0.122083 0.885000
endloop
endfacet
facet normal -0.211601 -0.976392 0.043410
outer loop
vertex 0.041512 -0.122083 0.885000
vertex -0.057692 -0.101128 0.872759
vertex -0.070558 -0.117520 0.441352
endloop
endfacet
facet normal -0.972642 0.227366 0.047671
outer loop
vertex -0.110683 -0.012892 0.885000
vertex -0.087608 0.085820 0.885000
vertex -0.106218 0.099226 0.441352
endloop
endfacet
facet normal -0.853627 -0.518922 0.045175
outer loop
vertex -0.070558 -0.117520 0.441352
vertex -0.057692 -0.101128 0.872759
vertex -0.110683 -0.012892 0.885000
endloop
endfacet
facet normal 0.930851 -0.191772 0.311030
outer loop
vertex 0.390932 -0.059596 1.963587
vertex 0.399147 -0.024906 1.960390
vertex 0.382135 -0.010652 2.020092
endloop
endfacet
facet normal 0.378492 0.915983 -0.133116
outer loop
vertex 0.287120 0.001849 1.835954
vertex 0.272978 0.025277 1.956954
vertex 0.382135 -0.010652 2.020092
endloop
endfacet
facet normal 0.702611 -0.214143 -0.678588
outer loop
vertex 0.271947 -0.063525 1.840874
vertex 0.287120 0.001849 1.835954
vertex 0.399147 -0.024906 1.960390
endloop
endfacet
facet normal -0.199177 -0.954096 0.223674
outer loop
vertex 0.271947 -0.063525 1.840874
vertex 0.390932 -0.059596 1.963587
vertex 0.374422 -0.041834 2.024650
endloop
endfacet
facet normal 0.054346 0.111464 0.992281
outer loop
vertex 0.157213 0.067149 1.958889
vertex 0.137953 -0.016498 1.969340
vertex 0.259161 -0.033639 1.964627
endloop
endfacet
facet normal 0.334770 0.931979 -0.139085
outer loop
vertex 0.169252 0.037148 1.786836
vertex 0.157213 0.067149 1.958889
vertex 0.272978 0.025277 1.956954
endloop
endfacet
facet normal 0.339554 -0.156701 -0.927441
outer loop
vertex 0.147960 -0.055284 1.794658
vertex 0.169252 0.037148 1.786836
vertex 0.287120 0.001849 1.835954
endloop
endfacet
facet normal -0.145415 -0.965048 0.218032
outer loop
vertex 0.147960 -0.055284 1.794658
vertex 0.271947 -0.063525 1.840874
vertex 0.259161 -0.033639 1.964627
endloop
endfacet
facet normal -0.885611 -0.361744 0.291262
outer loop
vertex -0.447961 0.015734 1.540470
vertex -0.461036 0.050491 1.543882
vertex -0.481316 0.049864 1.481440
endloop
endfacet
facet normal 0.182485 -0.043363 0.982252
outer loop
vertex -0.220884 0.004370 1.497230
vertex -0.206475 0.081634 1.497964
vertex -0.461036 0.050491 1.543882
endloop
endfacet
facet normal -0.425936 -0.071738 -0.901905
outer loop
vertex -0.219910 0.007643 1.361346
vertex -0.468269 0.015294 1.478028
vertex -0.481316 0.049864 1.481440
endloop
endfacet
facet normal -0.108465 0.993780 0.025249
outer loop
vertex -0.205924 0.082954 1.362080
vertex -0.481316 0.049864 1.481440
vertex -0.461036 0.050491 1.543882
endloop
endfacet
facet normal -0.212990 -0.976733 -0.025053
outer loop
vertex -0.139969 -0.014357 1.539427
vertex -0.220884 0.004370 1.497230
vertex -0.219910 0.007643 1.361346
endloop
endfacet
facet normal -0.411305 0.068070 0.908952
outer loop
vertex -0.111416 0.102353 1.539427
vertex -0.206475 0.081634 1.497964
vertex -0.220884 0.004370 1.497230
endloop
endfacet
facet normal -0.325238 0.078970 -0.942329
outer loop
vertex -0.106285 0.099692 1.329843
vertex -0.133738 -0.013374 1.329843
vertex -0.219910 0.007643 1.361346
endloop
endfacet
facet normal -0.170892 0.985148 -0.016692
outer loop
vertex -0.111416 0.102353 1.539427
vertex -0.106285 0.099692 1.329843
vertex -0.205924 0.082954 1.362080
endloop
endfacet
facet normal -0.527592 0.849498 0.000000
outer loop
vertex -0.119012 0.112233 1.269747
vertex -0.119012 0.112233 1.527383
vertex -0.005365 0.182815 1.269747
endloop
endfacet
facet normal 0.227626 0.973749 0.000000
outer loop
vertex 0.124904 0.152363 1.269747
vertex -0.005365 0.182815 1.269747
vertex 0.124904 0.152363 1.527383
endloop
endfacet
facet normal 0.849498 0.527592 0.000000
outer loop
vertex 0.124904 0.152363 1.269747
vertex 0.124904 0.152363 1.527383
vertex 0.195486 0.038716 1.269747
endloop
endfacet
facet normal 0.258664 -0.676593 -0.689430
outer loop
vertex 0.744865 -0.528013 1.724497
vertex 0.363763 -0.327137 1.384377
vertex 0.781119 -0.510558 1.720969
endloop
endfacet
facet normal -0.466021 -0.884771 0.002287
outer loop
vertex 0.354551 -0.321812 1.567319
vertex 0.363763 -0.327137 1.384377
vertex 0.721503 -0.514508 1.792693
endloop
endfacet
facet normal -0.189567 -0.981726 0.016671
outer loop
vertex 0.051387 -0.162136 1.269747
vertex 0.054295 -0.158193 1.535005
vertex -0.080183 -0.137279 1.237439
endloop
endfacet
facet normal 0.973224 -0.228242 -0.027222
outer loop
vertex 0.215059 0.210240 2.813895
vertex 0.147395 -0.000106 2.158443
vertex 0.221859 0.239572 2.811071
endloop
endfacet
facet normal -0.011942 -0.999515 0.028750
outer loop
vertex -0.520062 0.009152 1.450663
vertex -0.245350 0.001727 1.306636
vertex -0.494658 0.011089 1.528557
endloop
endfacet
facet normal -0.864653 -0.502369 0.000000
outer loop
vertex -0.149464 -0.018036 1.269747
vertex -0.080183 -0.137279 1.237439
vertex -0.149464 -0.018036 1.527383
endloop
endfacet
facet normal 0.530936 -0.820838 0.210553
outer loop
vertex 0.189452 0.194401 2.816718
vertex 0.078765 -0.041926 2.174512
vertex 0.215059 0.210240 2.813895
endloop
endfacet
facet normal -0.199207 -0.907601 0.369562
outer loop
vertex 0.160038 0.201333 2.817887
vertex -0.000663 -0.022658 2.181168
vertex 0.189452 0.194401 2.816718
endloop
endfacet
facet normal -0.799480 -0.474462 0.368399
outer loop
vertex -0.038332 0.057178 2.202242
vertex -0.000663 -0.022658 2.181168
vertex 0.144048 0.226977 2.816718
endloop
endfacet
facet normal -0.948085 0.239924 0.208735
outer loop
vertex 0.150849 0.256308 2.813895
vertex -0.026733 0.124821 2.158443
vertex 0.144048 0.226977 2.816718
endloop
endfacet
facet normal 0.215846 0.956895 -0.194327
outer loop
vertex 0.121324 0.147373 2.135720
vertex 0.041896 0.166641 2.142375
vertex 0.205870 0.265216 2.809903
endloop
endfacet
facet normal 0.836289 0.512557 -0.194693
outer loop
vertex 0.221859 0.239572 2.811071
vertex 0.165023 0.078304 2.142375
vertex 0.205870 0.265216 2.809903
endloop
endfacet
facet normal -0.525018 0.850611 -0.028562
outer loop
vertex 0.041896 0.166641 2.142375
vertex -0.026733 0.124821 2.158443
vertex 0.176456 0.272148 2.811071
endloop
endfacet
facet normal 0.974392 -0.216982 0.058990
outer loop
vertex 0.152863 -0.028229 1.964680
vertex 0.174537 0.065904 1.952919
vertex 0.147395 -0.000106 2.158443
endloop
endfacet
facet normal 0.538742 -0.831091 0.138007
outer loop
vertex 0.078765 -0.041926 2.174512
vertex 0.057537 -0.096108 1.931091
vertex 0.147395 -0.000106 2.158443
endloop
endfacet
facet normal -0.176325 -0.954778 0.239391
outer loop
vertex -0.033016 -0.070544 1.966352
vertex 0.057537 -0.096108 1.931091
vertex -0.000663 -0.022658 2.181168
endloop
endfacet
facet normal 0.287647 -0.261448 0.921360
outer loop
vertex -0.584553 0.062966 2.324405
vertex -0.209850 0.001463 2.189971
vertex -0.587331 0.088821 2.332609
endloop
endfacet
facet normal -0.537079 -0.601743 -0.591144
outer loop
vertex -0.282747 0.029147 2.000376
vertex -0.240937 -0.033603 2.026265
vertex -0.625210 0.081918 2.257801
endloop
endfacet
facet normal 0.236517 0.971577 0.009872
outer loop
vertex 0.121324 0.147373 2.135720
vertex 0.121207 0.149721 1.907429
vertex 0.041896 0.166641 2.142375
endloop
endfacet
facet normal 0.841960 0.539495 0.006971
outer loop
vertex 0.174537 0.065904 1.952919
vertex 0.121207 0.149721 1.907429
vertex 0.165023 0.078304 2.142375
endloop
endfacet
facet normal -0.507520 0.860119 0.051178
outer loop
vertex 0.026974 0.170009 1.937792
vertex -0.056233 0.121781 1.923187
vertex 0.041896 0.166641 2.142375
endloop
endfacet
facet normal -0.523837 0.843461 0.119030
outer loop
vertex -0.011023 0.217205 0.001283
vertex -0.147331 0.132550 0.001283
vertex -0.005365 0.182815 0.269876
endloop
endfacet
facet normal 0.226006 0.966826 0.119029
outer loop
vertex -0.011023 0.217205 0.001283
vertex -0.005365 0.182815 0.269876
vertex 0.145222 0.180681 0.001283
endloop
endfacet
facet normal 0.843461 0.523837 0.119033
outer loop
vertex 0.145222 0.180681 0.001283
vertex 0.124904 0.152363 0.269876
vertex 0.229877 0.044373 0.001283
endloop
endfacet
facet normal 0.966825 -0.226008 0.119034
outer loop
vertex 0.229877 0.044373 0.001283
vertex 0.195486 0.038716 0.269876
vertex 0.193353 -0.111871 0.001283
endloop
endfacet
facet normal 0.523837 -0.843461 0.119030
outer loop
vertex 0.057045 -0.196526 0.001283
vertex 0.193353 -0.111871 0.001283
vertex 0.051387 -0.162136 0.269876
endloop
endfacet
facet normal -0.226006 -0.966826 0.119029
outer loop
vertex 0.057045 -0.196526 0.001283
vertex 0.051387 -0.162136 0.269876
vertex -0.099200 -0.160002 0.001283
endloop
endfacet
facet normal -0.966826 0.226008 0.119033
outer loop
vertex -0.149464 -0.018036 0.269876
vertex -0.119012 0.112233 0.269876
vertex -0.183855 -0.023694 0.001283
endloop
endfacet
facet normal -0.843461 -0.523837 0.119027
outer loop
vertex -0.099200 -0.160002 0.001283
vertex -0.078884 -0.131684 0.269876
vertex -0.183855 -0.023694 0.001283
endloop
endfacet
facet normal 0.968334 -0.246838 0.037431
outer loop
vertex 0.169438 -0.089992 1.538969
vertex 0.202846 0.034437 1.495254
vertex 0.167022 -0.061668 1.788253
endloop
endfacet
facet normal 0.474937 -0.871685 0.120835
outer loop
vertex 0.044588 -0.129159 1.782605
vertex 0.054295 -0.158193 1.535005
vertex 0.167022 -0.061668 1.788253
endloop
endfacet
facet normal -0.842646 0.531422 0.086819
outer loop
vertex -0.335863 -0.386332 1.862784
vertex -0.374577 -0.413239 1.651732
vertex -0.589625 -0.831274 2.123333
endloop
endfacet
facet normal -0.716847 -0.243539 -0.653314
outer loop
vertex -0.608545 -0.850364 2.071402
vertex -0.374577 -0.413239 1.651732
vertex -0.597422 -0.872851 2.067580
endloop
endfacet
facet normal -0.960618 0.224557 0.163666
outer loop
vertex -0.119012 0.112233 1.527383
vertex -0.149464 -0.018036 1.527383
vertex -0.074228 0.119926 1.779682
endloop
endfacet
facet normal -0.214425 -0.353408 0.910563
outer loop
vertex -0.103866 0.817896 1.961365
vertex -0.094437 0.424277 1.810814
vertex -0.087268 0.825709 1.968306
endloop
endfacet
facet normal 0.840405 0.541589 0.019996
outer loop
vertex 0.190979 0.042334 1.780114
vertex 0.202846 0.034437 1.495254
vertex 0.121136 0.151153 1.768172
endloop
endfacet
facet normal -0.981263 -0.097398 0.166242
outer loop
vertex -0.114220 0.827860 1.906087
vertex -0.126992 0.424272 1.594244
vertex -0.103866 0.817896 1.961365
endloop
endfacet
facet normal -0.170907 -0.882725 0.437707
outer loop
vertex -0.597422 -0.872851 2.067580
vertex -0.573347 -0.875617 2.071402
vertex -0.576651 -0.844009 2.133856
endloop
endfacet
facet normal -0.784659 -0.431955 0.444664
outer loop
vertex -0.589625 -0.831274 2.123333
vertex -0.608545 -0.850364 2.071402
vertex -0.576651 -0.844009 2.133856
endloop
endfacet
facet normal -0.025441 0.519312 0.854206
outer loop
vertex -0.293370 -0.441589 1.897643
vertex -0.335863 -0.386332 1.862784
vertex -0.576651 -0.844009 2.133856
endloop
endfacet
facet normal 0.581768 0.049261 0.811862
outer loop
vertex -0.561325 -0.851578 2.123333
vertex -0.230735 -0.461754 1.862784
vertex -0.576651 -0.844009 2.133856
endloop
endfacet
facet normal 0.052808 -0.771636 -0.633869
outer loop
vertex -0.330099 -0.492371 1.626676
vertex -0.243822 -0.507049 1.651732
vertex -0.597422 -0.872851 2.067580
endloop
endfacet
facet normal 0.793311 -0.601400 0.094739
outer loop
vertex -0.573347 -0.875617 2.071402
vertex -0.243822 -0.507049 1.651732
vertex -0.561325 -0.851578 2.123333
endloop
endfacet
facet normal -0.848784 0.519449 0.098683
outer loop
vertex -0.116895 -0.013304 1.782605
vertex -0.149464 -0.018036 1.527383
vertex -0.335863 -0.386332 1.862784
endloop
endfacet
facet normal -0.487154 0.002705 -0.873312
outer loop
vertex -0.374577 -0.413239 1.651732
vertex -0.149464 -0.018036 1.527383
vertex -0.330099 -0.492371 1.626676
endloop
endfacet
facet normal -0.265475 0.350621 0.898103
outer loop
vertex -0.052751 -0.099754 1.835316
vertex -0.116895 -0.013304 1.782605
vertex -0.293370 -0.441589 1.897643
endloop
endfacet
facet normal 0.442434 -0.153234 0.883613
outer loop
vertex -0.230735 -0.461754 1.862784
vertex 0.044588 -0.129159 1.782605
vertex -0.293370 -0.441589 1.897643
endloop
endfacet
facet normal 0.229017 -0.493584 -0.839003
outer loop
vertex -0.080518 -0.138720 1.486750
vertex 0.054295 -0.158193 1.535005
vertex -0.330099 -0.492371 1.626676
endloop
endfacet
facet normal 0.771572 -0.630111 0.087388
outer loop
vertex -0.243822 -0.507049 1.651732
vertex 0.054295 -0.158193 1.535005
vertex -0.230735 -0.461754 1.862784
endloop
endfacet
facet normal -0.526986 0.848539 -0.047618
outer loop
vertex -0.001158 0.157335 0.769139
vertex -0.098071 0.097147 0.769139
vertex -0.005365 0.182815 1.269747
endloop
endfacet
facet normal 0.227370 0.972645 -0.047595
outer loop
vertex -0.001158 0.157335 0.769139
vertex -0.005365 0.182815 1.269747
vertex 0.109928 0.131367 0.769139
endloop
endfacet
facet normal 0.848539 0.526998 -0.047487
outer loop
vertex 0.109928 0.131367 0.769139
vertex 0.124904 0.152363 1.269747
vertex 0.170116 0.034456 0.769139
endloop
endfacet
facet normal 0.978183 -0.202160 -0.047852
outer loop
vertex 0.170116 0.034456 0.769139
vertex 0.195486 0.038716 1.269747
vertex 0.146021 -0.078014 0.751743
endloop
endfacet
facet normal 0.504707 -0.861968 -0.047776
outer loop
vertex 0.047237 -0.136819 0.769139
vertex 0.146021 -0.078014 0.751743
vertex 0.051387 -0.162136 1.269747
endloop
endfacet
facet normal -0.200782 -0.978468 -0.047819
outer loop
vertex 0.047237 -0.136819 0.769139
vertex 0.051387 -0.162136 1.269747
vertex -0.064404 -0.113237 0.755364
endloop
endfacet
facet normal -0.972649 0.227362 -0.047539
outer loop
vertex -0.098071 0.097147 0.769139
vertex -0.124038 -0.013939 0.769139
vertex -0.119012 0.112233 1.269747
endloop
endfacet
facet normal -0.859216 -0.509375 -0.047809
outer loop
vertex -0.124038 -0.013939 0.769139
vertex -0.064404 -0.113237 0.755364
vertex -0.149464 -0.018036 1.269747
endloop
endfacet
facet normal 0.911867 -0.168880 0.374136
outer loop
vertex 0.781119 -0.510558 1.720969
vertex 0.785889 -0.470905 1.727242
vertex 0.748210 -0.490129 1.810398
endloop
endfacet
facet normal 0.433850 -0.830491 0.349368
outer loop
vertex 0.781119 -0.510558 1.720969
vertex 0.748210 -0.490129 1.810398
vertex 0.744865 -0.528013 1.724497
endloop
endfacet
facet normal 0.631022 0.773198 0.063052
outer loop
vertex 0.785889 -0.470905 1.727242
vertex 0.467221 -0.182962 1.385459
vertex 0.762527 -0.457400 1.795438
endloop
endfacet
facet normal -0.198738 0.478007 0.855577
outer loop
vertex 0.762527 -0.457400 1.795438
vertex 0.458009 -0.177637 1.568401
vertex 0.748210 -0.490129 1.810398
endloop
endfacet
facet normal 0.752123 0.047485 -0.657310
outer loop
vertex 0.449554 -0.279467 1.358272
vertex 0.467221 -0.182962 1.385459
vertex 0.781119 -0.510558 1.720969
endloop
endfacet
facet normal -0.475887 0.140781 0.868166
outer loop
vertex 0.432128 -0.265910 1.600778
vertex 0.354551 -0.321812 1.567319
vertex 0.748210 -0.490129 1.810398
endloop
endfacet
facet normal 0.033846 -0.526214 -0.849678
outer loop
vertex 0.363763 -0.327137 1.384377
vertex 0.051387 -0.162136 1.269747
vertex 0.449554 -0.279467 1.358272
endloop
endfacet
facet normal -0.479936 -0.877113 0.018300
outer loop
vertex 0.054295 -0.158193 1.535005
vertex 0.051387 -0.162136 1.269747
vertex 0.354551 -0.321812 1.567319
endloop
endfacet
facet normal 0.629769 0.776729 0.009103
outer loop
vertex 0.467221 -0.182962 1.385459
vertex 0.195486 0.038716 1.269747
vertex 0.458009 -0.177637 1.568401
endloop
endfacet
facet normal 0.013739 0.340765 0.940048
outer loop
vertex 0.458009 -0.177637 1.568401
vertex 0.202846 0.034437 1.495254
vertex 0.432128 -0.265910 1.600778
endloop
endfacet
facet normal 0.499829 0.162413 -0.850760
outer loop
vertex 0.169424 -0.094798 1.228947
vertex 0.195486 0.038716 1.269747
vertex 0.449554 -0.279467 1.358272
endloop
endfacet
facet normal -0.126089 0.155932 0.979687
outer loop
vertex 0.169438 -0.089992 1.538969
vertex 0.054295 -0.158193 1.535005
vertex 0.432128 -0.265910 1.600778
endloop
endfacet
facet normal 0.214262 0.957699 0.192105
outer loop
vertex -0.069364 0.823547 1.959115
vertex -0.071049 0.834617 1.905807
vertex -0.087268 0.825709 1.968306
endloop
endfacet
facet normal -0.517299 0.817752 0.252355
outer loop
vertex -0.094279 0.841241 1.903603
vertex -0.114220 0.827860 1.906087
vertex -0.087268 0.825709 1.968306
endloop
endfacet
facet normal 0.962810 0.270007 0.009647
outer loop
vertex 0.038210 0.445532 1.802914
vertex 0.038659 0.451390 1.594135
vertex -0.069364 0.823547 1.959115
endloop
endfacet
facet normal 0.253900 0.652993 -0.713537
outer loop
vertex -0.071049 0.834617 1.905807
vertex 0.038659 0.451390 1.594135
vertex -0.094279 0.841241 1.903603
endloop
endfacet
facet normal -0.492488 0.543162 -0.680022
outer loop
vertex -0.050328 0.473945 1.578398
vertex -0.126992 0.424272 1.594244
vertex -0.094279 0.841241 1.903603
endloop
endfacet
facet normal 0.342800 -0.277324 0.897541
outer loop
vertex -0.031774 0.459134 1.833846
vertex 0.038210 0.445532 1.802914
vertex -0.087268 0.825709 1.968306
endloop
endfacet
facet normal -0.285039 -0.116249 0.951440
outer loop
vertex -0.094437 0.424277 1.810814
vertex -0.074228 0.119926 1.779682
vertex -0.031774 0.459134 1.833846
endloop
endfacet
facet normal -0.987279 -0.057048 0.148410
outer loop
vertex -0.126992 0.424272 1.594244
vertex -0.119012 0.112233 1.527383
vertex -0.094437 0.424277 1.810814
endloop
endfacet
facet normal 0.962913 0.269313 0.016422
outer loop
vertex 0.121136 0.151153 1.768172
vertex 0.124904 0.152363 1.527383
vertex 0.038210 0.445532 1.802914
endloop
endfacet
facet normal 0.234742 0.275781 -0.932116
outer loop
vertex 0.038659 0.451390 1.594135
vertex 0.124904 0.152363 1.527383
vertex -0.050328 0.473945 1.578398
endloop
endfacet
facet normal -0.324074 0.192181 -0.926306
outer loop
vertex -0.006103 0.185096 1.502998
vertex -0.119012 0.112233 1.527383
vertex -0.050328 0.473945 1.578398
endloop
endfacet
facet normal 0.398579 0.002322 0.917131
outer loop
vertex 0.017872 0.172063 1.812997
vertex 0.121136 0.151153 1.768172
vertex -0.031774 0.459134 1.833846
endloop
endfacet
facet normal -0.428091 0.233542 0.873039
outer loop
vertex 0.427656 -0.021651 2.021793
vertex 0.304815 0.018783 1.950742
vertex 0.418975 -0.056741 2.026923
endloop
endfacet
facet normal 0.542001 -0.829090 0.137278
outer loop
vertex 0.057537 -0.096108 1.931091
vertex 0.044588 -0.129159 1.782605
vertex 0.152863 -0.028229 1.964680
endloop
endfacet
facet normal -0.160647 -0.957953 0.237737
outer loop
vertex -0.052751 -0.099754 1.835316
vertex 0.044588 -0.129159 1.782605
vertex -0.033016 -0.070544 1.966352
endloop
endfacet
facet normal -0.839911 -0.491426 0.230326
outer loop
vertex -0.089414 0.009321 1.931091
vertex -0.116895 -0.013304 1.782605
vertex -0.033016 -0.070544 1.966352
endloop
endfacet
facet normal -0.945348 0.305262 0.114597
outer loop
vertex -0.074228 0.119926 1.779682
vertex -0.116895 -0.013304 1.782605
vertex -0.056233 0.121781 1.923187
endloop
endfacet
facet normal 0.213522 0.976888 0.009937
outer loop
vertex 0.121207 0.149721 1.907429
vertex 0.121136 0.151153 1.768172
vertex 0.026974 0.170009 1.937792
endloop
endfacet
facet normal 0.841241 0.540623 0.006303
outer loop
vertex 0.190979 0.042334 1.780114
vertex 0.121136 0.151153 1.768172
vertex 0.174537 0.065904 1.952919
endloop
endfacet
facet normal -0.505917 0.861069 0.051072
outer loop
vertex 0.017872 0.172063 1.812997
vertex -0.074228 0.119926 1.779682
vertex 0.026974 0.170009 1.937792
endloop
endfacet
facet normal -0.851883 -0.258935 0.455245
outer loop
vertex -0.625210 0.081918 2.257801
vertex -0.613066 0.053973 2.264631
vertex -0.587331 0.088821 2.332609
endloop
endfacet
facet normal -0.808410 0.479021 0.342070
outer loop
vertex -0.581969 0.108006 2.318415
vertex -0.607658 0.112016 2.252089
vertex -0.587331 0.088821 2.332609
endloop
endfacet
facet normal -0.103788 -0.975055 0.196206
outer loop
vertex -0.613066 0.053973 2.264631
vertex -0.240937 -0.033603 2.026265
vertex -0.584553 0.062966 2.324405
endloop
endfacet
facet normal -0.020471 0.999790 -0.000767
outer loop
vertex -0.226475 0.115173 2.172764
vertex -0.254718 0.114457 1.993195
vertex -0.581969 0.108006 2.318415
endloop
endfacet
facet normal -0.581654 0.189050 -0.791163
outer loop
vertex -0.607658 0.112016 2.252089
vertex -0.254718 0.114457 1.993195
vertex -0.625210 0.081918 2.257801
endloop
endfacet
facet normal 0.326551 0.477197 0.815872
outer loop
vertex -0.236017 0.063504 2.206804
vertex -0.226475 0.115173 2.172764
vertex -0.587331 0.088821 2.332609
endloop
endfacet
facet normal 0.010964 -0.257529 0.966208
outer loop
vertex -0.209850 0.001463 2.189971
vertex -0.000663 -0.022658 2.181168
vertex -0.236017 0.063504 2.206804
endloop
endfacet
facet normal -0.328943 -0.566031 -0.755913
outer loop
vertex -0.089414 0.009321 1.931091
vertex -0.033016 -0.070544 1.966352
vertex -0.282747 0.029147 2.000376
endloop
endfacet
facet normal -0.106406 -0.967938 0.227539
outer loop
vertex -0.240937 -0.033603 2.026265
vertex -0.033016 -0.070544 1.966352
vertex -0.209850 0.001463 2.189971
endloop
endfacet
facet normal -0.048731 0.998789 -0.006796
outer loop
vertex -0.026733 0.124821 2.158443
vertex -0.056233 0.121781 1.923187
vertex -0.226475 0.115173 2.172764
endloop
endfacet
facet normal -0.333468 0.030247 -0.942276
outer loop
vertex -0.254718 0.114457 1.993195
vertex -0.056233 0.121781 1.923187
vertex -0.282747 0.029147 2.000376
endloop
endfacet
facet normal 0.036663 0.538710 0.841693
outer loop
vertex -0.038332 0.057178 2.202242
vertex -0.026733 0.124821 2.158443
vertex -0.236017 0.063504 2.206804
endloop
endfacet
facet normal -0.526990 0.848529 0.047744
outer loop
vertex -0.119012 0.112233 0.269876
vertex -0.098071 0.097147 0.769139
vertex -0.005365 0.182815 0.269876
endloop
endfacet
facet normal 0.227366 0.972639 0.047723
outer loop
vertex 0.124904 0.152363 0.269876
vertex -0.005365 0.182815 0.269876
vertex 0.109928 0.131367 0.769139
endloop
endfacet
facet normal 0.848534 0.526994 0.047615
outer loop
vertex 0.195486 0.038716 0.269876
vertex 0.124904 0.152363 0.269876
vertex 0.170116 0.034456 0.769139
endloop
endfacet
facet normal 0.972651 -0.227367 0.047485
outer loop
vertex 0.195486 0.038716 0.269876
vertex 0.170116 0.034456 0.769139
vertex 0.165034 -0.091554 0.269876
endloop
endfacet
facet normal 0.526999 -0.848543 0.047409
outer loop
vertex 0.051387 -0.162136 0.269876
vertex 0.165034 -0.091554 0.269876
vertex 0.047237 -0.136819 0.769139
endloop
endfacet
facet normal -0.227366 -0.972653 0.047432
outer loop
vertex 0.051387 -0.162136 0.269876
vertex 0.047237 -0.136819 0.769139
vertex -0.078884 -0.131684 0.269876
endloop
endfacet
facet normal -0.972642 0.227367 0.047668
outer loop
vertex -0.149464 -0.018036 0.269876
vertex -0.124038 -0.013939 0.769139
vertex -0.119012 0.112233 0.269876
endloop
endfacet
facet normal -0.848546 -0.526981 0.047538
outer loop
vertex -0.149464 -0.018036 0.269876
vertex -0.078884 -0.131684 0.269876
vertex -0.124038 -0.013939 0.769139
endloop
endfacet
facet normal 0.924441 -0.179515 0.336428
outer loop
vertex 0.418975 -0.056741 2.026923
vertex 0.438402 -0.073747 1.964467
vertex 0.427656 -0.021651 2.021793
endloop
endfacet
facet normal 0.351468 0.932198 -0.086467
outer loop
vertex 0.447606 -0.034851 1.960576
vertex 0.322911 0.000101 1.830537
vertex 0.427656 -0.021651 2.021793
endloop
endfacet
facet normal 0.675152 -0.229882 -0.700945
outer loop
vertex 0.438402 -0.073747 1.964467
vertex 0.305908 -0.073212 1.836673
vertex 0.447606 -0.034851 1.960576
endloop
endfacet
facet normal -0.163183 -0.969861 0.180947
outer loop
vertex 0.289266 -0.047519 1.959377
vertex 0.305908 -0.073212 1.836673
vertex 0.418975 -0.056741 2.026923
endloop
endfacet
facet normal 0.058333 0.115464 0.991597
outer loop
vertex 0.304815 0.018783 1.950742
vertex 0.174537 0.065904 1.952919
vertex 0.289266 -0.047519 1.959377
endloop
endfacet
facet normal 0.336244 0.936971 -0.095003
outer loop
vertex 0.322911 0.000101 1.830537
vertex 0.190979 0.042334 1.780114
vertex 0.304815 0.018783 1.950742
endloop
endfacet
facet normal 0.314172 -0.151307 -0.937231
outer loop
vertex 0.305908 -0.073212 1.836673
vertex 0.167022 -0.061668 1.788253
vertex 0.322911 0.000101 1.830537
endloop
endfacet
facet normal -0.131228 -0.975886 0.174432
outer loop
vertex 0.152863 -0.028229 1.964680
vertex 0.167022 -0.061668 1.788253
vertex 0.289266 -0.047519 1.959377
endloop
endfacet
facet normal -0.884825 -0.358576 0.297502
outer loop
vertex -0.534865 0.048866 1.454503
vertex -0.520062 0.009152 1.450663
vertex -0.509460 0.050803 1.532397
endloop
endfacet
facet normal 0.186685 -0.025382 0.982092
outer loop
vertex -0.494658 0.011089 1.528557
vertex -0.239884 0.002144 1.479896
vertex -0.509460 0.050803 1.532397
endloop
endfacet
facet normal -0.442085 0.085634 -0.892876
outer loop
vertex -0.230037 0.089404 1.307463
vertex -0.245350 0.001727 1.306636
vertex -0.534865 0.048866 1.454503
endloop
endfacet
facet normal -0.135355 0.990795 0.001886
outer loop
vertex -0.224570 0.089821 1.480722
vertex -0.230037 0.089404 1.307463
vertex -0.509460 0.050803 1.532397
endloop
endfacet
facet normal -0.201866 -0.979413 -0.000000
outer loop
vertex -0.149464 -0.018036 1.269747
vertex -0.149464 -0.018036 1.527383
vertex -0.245350 0.001727 1.306636
endloop
endfacet
facet normal -0.444185 0.103834 0.889898
outer loop
vertex -0.149464 -0.018036 1.527383
vertex -0.119012 0.112233 1.527383
vertex -0.239884 0.002144 1.479896
endloop
endfacet
facet normal -0.333268 0.067077 -0.940443
outer loop
vertex -0.230037 0.089404 1.307463
vertex -0.119012 0.112233 1.269747
vertex -0.245350 0.001727 1.306636
endloop
endfacet
facet normal -0.209488 0.977802 0.004257
outer loop
vertex -0.224570 0.089821 1.480722
vertex -0.119012 0.112233 1.527383
vertex -0.230037 0.089404 1.307463
endloop
endfacet
facet normal -0.524350 0.851175 -0.023644
outer loop
vertex -0.106285 0.099692 1.329843
vertex -0.111416 0.102353 1.539427
vertex -0.005230 0.161945 1.329843
endloop
endfacet
facet normal 0.227627 0.973748 0.000000
outer loop
vertex 0.110528 0.134885 1.329843
vertex -0.005230 0.161945 1.329843
vertex 0.110528 0.134885 1.558780
endloop
endfacet
facet normal 0.849498 0.527592 0.000000
outer loop
vertex 0.110528 0.134885 1.329843
vertex 0.110528 0.134885 1.558780
vertex 0.173248 0.033897 1.329843
endloop
endfacet
facet normal 0.258673 -0.676585 -0.689435
outer loop
vertex 0.661429 -0.469701 1.733937
vertex 0.322779 -0.291201 1.431704
vertex 0.693644 -0.454190 1.730802
endloop
endfacet
facet normal -0.466019 -0.884772 0.002285
outer loop
vertex 0.314594 -0.286470 1.594267
vertex 0.322779 -0.291201 1.431704
vertex 0.640669 -0.457700 1.794537
endloop
endfacet
facet normal -0.189567 -0.981726 0.016673
outer loop
vertex 0.045200 -0.144580 1.329843
vertex 0.047785 -0.141076 1.565553
vertex -0.071714 -0.122492 1.301134
endloop
endfacet
facet normal 0.973129 -0.228410 -0.029144
outer loop
vertex 0.190640 0.186315 2.701982
vertex 0.129979 0.000255 2.134696
vertex 0.196683 0.212381 2.699473
endloop
endfacet
facet normal -0.023842 -0.999606 0.014798
outer loop
vertex -0.468269 0.015294 1.478028
vertex -0.219910 0.007643 1.361346
vertex -0.447961 0.015734 1.540470
endloop
endfacet
facet normal -0.872196 -0.488342 -0.028221
outer loop
vertex -0.133738 -0.013374 1.329843
vertex -0.071714 -0.122492 1.301134
vertex -0.139969 -0.014357 1.539427
endloop
endfacet
facet normal 0.505331 -0.834839 0.218369
outer loop
vertex 0.063049 -0.029628 2.175335
vertex 0.129979 0.000255 2.134696
vertex 0.167885 0.172241 2.704491
endloop
endfacet
facet normal -0.165805 -0.909407 0.381427
outer loop
vertex -0.011461 -0.007679 2.195277
vertex 0.063049 -0.029628 2.175335
vertex 0.141748 0.178400 2.705530
endloop
endfacet
facet normal -0.763558 -0.496994 0.412282
outer loop
vertex -0.044783 0.059354 2.214370
vertex -0.011461 -0.007679 2.195277
vertex 0.127539 0.201187 2.704491
endloop
endfacet
facet normal -0.938284 0.241387 0.247702
outer loop
vertex 0.133582 0.227251 2.701982
vertex -0.034289 0.114565 2.175907
vertex 0.127539 0.201187 2.704491
endloop
endfacet
facet normal 0.217299 0.955564 -0.199194
outer loop
vertex 0.182474 0.235166 2.698435
vertex 0.106784 0.130663 2.114548
vertex 0.156337 0.241326 2.699473
endloop
endfacet
facet normal 0.836386 0.512755 -0.193754
outer loop
vertex 0.196683 0.212381 2.699473
vertex 0.146430 0.069961 2.105641
vertex 0.182474 0.235166 2.698435
endloop
endfacet
facet normal -0.487933 0.872237 -0.033526
outer loop
vertex 0.030540 0.149733 2.147350
vertex -0.034289 0.114565 2.175907
vertex 0.156337 0.241326 2.699473
endloop
endfacet
facet normal 0.974036 -0.215676 0.068822
outer loop
vertex 0.137953 -0.016498 1.969340
vertex 0.157213 0.067149 1.958889
vertex 0.129979 0.000255 2.134696
endloop
endfacet
facet normal 0.550518 -0.821634 0.147809
outer loop
vertex 0.051532 -0.078154 1.948486
vertex 0.137953 -0.016498 1.969340
vertex 0.063049 -0.029628 2.175335
endloop
endfacet
facet normal -0.163107 -0.958896 0.232195
outer loop
vertex -0.030165 -0.053715 1.992023
vertex 0.051532 -0.078154 1.948486
vertex -0.011461 -0.007679 2.195277
endloop
endfacet
facet normal 0.286419 -0.268393 0.919744
outer loop
vertex -0.520265 0.064923 2.322556
vertex -0.187740 0.010423 2.203100
vertex -0.522715 0.087441 2.329890
endloop
endfacet
facet normal -0.497555 -0.703078 -0.508055
outer loop
vertex -0.251941 0.031299 2.020833
vertex -0.214926 -0.020889 2.056804
vertex -0.556369 0.081136 2.250002
endloop
endfacet
facet normal 0.253876 0.966831 0.028017
outer loop
vertex 0.106784 0.130663 2.114548
vertex 0.108295 0.136246 1.908191
vertex 0.030540 0.149733 2.147350
endloop
endfacet
facet normal 0.798606 0.600002 0.047183
outer loop
vertex 0.157213 0.067149 1.958889
vertex 0.108295 0.136246 1.908191
vertex 0.146430 0.069961 2.105641
endloop
endfacet
facet normal -0.469798 0.882540 0.020333
outer loop
vertex 0.030540 0.149733 2.147350
vertex 0.023507 0.150565 1.948739
vertex -0.034289 0.114565 2.175907
endloop
endfacet
facet normal -0.527348 0.849113 0.030190
outer loop
vertex -0.006497 0.169644 0.202678
vertex -0.112558 0.103774 0.202678
vertex -0.005230 0.161945 0.441352
endloop
endfacet
facet normal 0.227519 0.973306 0.030189
outer loop
vertex -0.006497 0.169644 0.202678
vertex -0.005230 0.161945 0.441352
vertex 0.115077 0.141225 0.202678
endloop
endfacet
facet normal 0.849113 0.527348 0.030190
outer loop
vertex 0.180947 0.035164 0.202678
vertex 0.115077 0.141225 0.202678
vertex 0.173248 0.033897 0.441352
endloop
endfacet
facet normal 0.973306 -0.227519 0.030189
outer loop
vertex 0.180947 0.035164 0.202678
vertex 0.173248 0.033897 0.441352
vertex 0.152528 -0.086410 0.202678
endloop
endfacet
facet normal 0.527348 -0.849113 0.030192
outer loop
vertex 0.152528 -0.086410 0.202678
vertex 0.146188 -0.081861 0.441352
vertex 0.046467 -0.152280 0.202678
endloop
endfacet
facet normal -0.227526 -0.973304 0.030192
outer loop
vertex 0.046467 -0.152280 0.202678
vertex 0.045200 -0.144580 0.441352
vertex -0.075107 -0.123860 0.202678
endloop
endfacet
facet normal -0.973303 0.227528 0.030193
outer loop
vertex -0.140978 -0.017799 0.202678
vertex -0.133278 -0.016533 0.441352
vertex -0.112558 0.103774 0.202678
endloop
endfacet
facet normal -0.849109 -0.527354 0.030192
outer loop
vertex -0.075107 -0.123860 0.202678
vertex -0.070558 -0.117520 0.441352
vertex -0.140978 -0.017799 0.202678
endloop
endfacet
facet normal 0.968301 -0.247063 0.036778
outer loop
vertex 0.150101 -0.080473 1.569075
vertex 0.179788 0.030095 1.530230
vertex 0.147960 -0.055284 1.794658
endloop
endfacet
facet normal 0.482090 -0.868611 0.114473
outer loop
vertex 0.039159 -0.115277 1.797640
vertex 0.047785 -0.141076 1.565553
vertex 0.147960 -0.055284 1.794658
endloop
endfacet
facet normal -0.844743 0.528636 0.083395
outer loop
vertex -0.298911 -0.343802 1.866206
vertex -0.333315 -0.367712 1.669277
vertex -0.524407 -0.739181 2.088346
endloop
endfacet
facet normal -0.716816 -0.243575 -0.653335
outer loop
vertex -0.541221 -0.756144 2.042199
vertex -0.333315 -0.367712 1.669277
vertex -0.531336 -0.776126 2.038803
endloop
endfacet
facet normal -0.958391 0.234470 0.162820
outer loop
vertex -0.111416 0.102353 1.539427
vertex -0.139969 -0.014357 1.539427
vertex -0.066422 0.106062 1.798929
endloop
endfacet
facet normal -0.224057 -0.336587 0.914608
outer loop
vertex -0.092757 0.726282 1.944419
vertex -0.084381 0.376511 1.817751
vertex -0.078009 0.733225 1.950587
endloop
endfacet
facet normal 0.840636 0.541245 0.019639
outer loop
vertex 0.169252 0.037148 1.786836
vertex 0.179788 0.030095 1.530230
vertex 0.107179 0.133810 1.779859
endloop
endfacet
facet normal -0.981257 -0.097417 0.166268
outer loop
vertex -0.101959 0.735135 1.895299
vertex -0.113309 0.376505 1.618193
vertex -0.092757 0.726282 1.944419
endloop
endfacet
facet normal -0.170893 -0.882729 0.437704
outer loop
vertex -0.531336 -0.776126 2.038803
vertex -0.509942 -0.778584 2.042199
vertex -0.512879 -0.750497 2.097696
endloop
endfacet
facet normal -0.784660 -0.431943 0.444672
outer loop
vertex -0.524407 -0.739181 2.088346
vertex -0.541221 -0.756144 2.042199
vertex -0.512879 -0.750497 2.097696
endloop
endfacet
facet normal -0.040889 0.510425 0.858950
outer loop
vertex -0.261153 -0.392904 1.897182
vertex -0.298911 -0.343802 1.866206
vertex -0.512879 -0.750497 2.097696
endloop
endfacet
facet normal 0.576992 0.033995 0.816042
outer loop
vertex -0.499259 -0.757222 2.088346
vertex -0.205495 -0.410823 1.866206
vertex -0.512879 -0.750497 2.097696
endloop
endfacet
facet normal 0.052816 -0.771640 -0.633863
outer loop
vertex -0.293790 -0.438030 1.647012
vertex -0.217124 -0.451072 1.669277
vertex -0.531336 -0.776126 2.038803
endloop
endfacet
facet normal 0.793313 -0.601397 0.094742
outer loop
vertex -0.509942 -0.778584 2.042199
vertex -0.217124 -0.451072 1.669277
vertex -0.499259 -0.757222 2.088346
endloop
endfacet
facet normal -0.845752 0.521230 0.114117
outer loop
vertex -0.104336 -0.012327 1.794241
vertex -0.139969 -0.014357 1.539427
vertex -0.298911 -0.343802 1.866206
endloop
endfacet
facet normal -0.524754 -0.025545 -0.850871
outer loop
vertex -0.333315 -0.367712 1.669277
vertex -0.139969 -0.014357 1.539427
vertex -0.293790 -0.438030 1.647012
endloop
endfacet
facet normal -0.324067 0.369138 0.871044
outer loop
vertex -0.047371 -0.088279 1.847622
vertex -0.104336 -0.012327 1.794241
vertex -0.261153 -0.392904 1.897182
endloop
endfacet
facet normal 0.440355 -0.159550 0.883533
outer loop
vertex -0.205495 -0.410823 1.866206
vertex 0.039159 -0.115277 1.797640
vertex -0.261153 -0.392904 1.897182
endloop
endfacet
facet normal 0.245283 -0.508549 -0.825357
outer loop
vertex -0.073542 -0.123393 1.518601
vertex 0.047785 -0.141076 1.565553
vertex -0.293790 -0.438030 1.647012
endloop
endfacet
facet normal 0.771194 -0.631107 0.083447
outer loop
vertex -0.217124 -0.451072 1.669277
vertex 0.047785 -0.141076 1.565553
vertex -0.205495 -0.410823 1.866206
endloop
endfacet
facet normal -0.526997 0.848532 -0.047616
outer loop
vertex -0.001492 0.139304 0.885000
vertex -0.087608 0.085820 0.885000
vertex -0.005230 0.161945 1.329843
endloop
endfacet
facet normal 0.227366 0.972646 -0.047594
outer loop
vertex -0.001492 0.139304 0.885000
vertex -0.005230 0.161945 1.329843
vertex 0.097220 0.116229 0.885000
endloop
endfacet
facet normal 0.848540 0.526996 -0.047486
outer loop
vertex 0.097220 0.116229 0.885000
vertex 0.110528 0.134885 1.329843
vertex 0.150704 0.030112 0.885000
endloop
endfacet
facet normal 0.978181 -0.202170 -0.047853
outer loop
vertex 0.150704 0.030112 0.885000
vertex 0.173248 0.033897 1.329843
vertex 0.129292 -0.069829 0.869541
endloop
endfacet
facet normal 0.504703 -0.861970 -0.047777
outer loop
vertex 0.041512 -0.122083 0.885000
vertex 0.129292 -0.069829 0.869541
vertex 0.045200 -0.144580 1.329843
endloop
endfacet
facet normal -0.200783 -0.978468 -0.047819
outer loop
vertex 0.041512 -0.122083 0.885000
vertex 0.045200 -0.144580 1.329843
vertex -0.057692 -0.101128 0.872759
endloop
endfacet
facet normal -0.972630 0.227363 -0.047927
outer loop
vertex -0.087608 0.085820 0.885000
vertex -0.110683 -0.012892 0.885000
vertex -0.106285 0.099692 1.329843
endloop
endfacet
facet normal -0.859158 -0.509722 -0.045080
outer loop
vertex -0.110683 -0.012892 0.885000
vertex -0.057692 -0.101128 0.872759
vertex -0.133738 -0.013374 1.329843
endloop
endfacet
facet normal 0.911870 -0.168885 0.374126
outer loop
vertex 0.693644 -0.454190 1.730802
vertex 0.697883 -0.418954 1.736376
vertex 0.664402 -0.436037 1.810269
endloop
endfacet
facet normal 0.433864 -0.830486 0.349363
outer loop
vertex 0.693644 -0.454190 1.730802
vertex 0.664402 -0.436037 1.810269
vertex 0.661429 -0.469701 1.733937
endloop
endfacet
facet normal 0.631022 0.773198 0.063054
outer loop
vertex 0.697883 -0.418954 1.736376
vertex 0.414713 -0.163086 1.432666
vertex 0.677124 -0.406954 1.796975
endloop
endfacet
facet normal -0.198725 0.478017 0.855575
outer loop
vertex 0.677124 -0.406954 1.796975
vertex 0.406527 -0.158355 1.595229
vertex 0.664402 -0.436037 1.810269
endloop
endfacet
facet normal 0.752124 0.047487 -0.657308
outer loop
vertex 0.399014 -0.248842 1.408507
vertex 0.414713 -0.163086 1.432666
vertex 0.693644 -0.454190 1.730802
endloop
endfacet
facet normal -0.475893 0.140767 0.868165
outer loop
vertex 0.383529 -0.236795 1.624000
vertex 0.314594 -0.286470 1.594267
vertex 0.664402 -0.436037 1.810269
endloop
endfacet
facet normal 0.033844 -0.526218 -0.849676
outer loop
vertex 0.322779 -0.291201 1.431704
vertex 0.045200 -0.144580 1.329843
vertex 0.399014 -0.248842 1.408507
endloop
endfacet
facet normal -0.479939 -0.877111 0.018302
outer loop
vertex 0.047785 -0.141076 1.565553
vertex 0.045200 -0.144580 1.329843
vertex 0.314594 -0.286470 1.594267
endloop
endfacet
facet normal 0.629766 0.776731 0.009107
outer loop
vertex 0.414713 -0.163086 1.432666
vertex 0.173248 0.033897 1.329843
vertex 0.406527 -0.158355 1.595229
endloop
endfacet
facet normal 0.013742 0.340769 0.940046
outer loop
vertex 0.406527 -0.158355 1.595229
vertex 0.179788 0.030095 1.530230
vertex 0.383529 -0.236795 1.624000
endloop
endfacet
facet normal 0.499830 0.162413 -0.850759
outer loop
vertex 0.150089 -0.084743 1.293588
vertex 0.173248 0.033897 1.329843
vertex 0.399014 -0.248842 1.408507
endloop
endfacet
facet normal -0.126088 0.155939 0.979686
outer loop
vertex 0.150101 -0.080473 1.569075
vertex 0.047785 -0.141076 1.565553
vertex 0.383529 -0.236795 1.624000
endloop
endfacet
facet normal 0.214319 0.957687 0.192104
outer loop
vertex -0.062100 0.731303 1.942420
vertex -0.063597 0.741140 1.895050
vertex -0.078009 0.733225 1.950587
endloop
endfacet
facet normal -0.517337 0.817729 0.252353
outer loop
vertex -0.084240 0.747026 1.893092
vertex -0.101959 0.735135 1.895299
vertex -0.078009 0.733225 1.950587
endloop
endfacet
facet normal 0.962724 0.270324 0.009298
outer loop
vertex 0.033491 0.395398 1.810731
vertex 0.033890 0.400603 1.618096
vertex -0.062100 0.731303 1.942420
endloop
endfacet
facet normal 0.253871 0.652994 -0.713546
outer loop
vertex -0.063597 0.741140 1.895050
vertex 0.033890 0.400603 1.618096
vertex -0.084240 0.747026 1.893092
endloop
endfacet
facet normal -0.492486 0.543164 -0.680023
outer loop
vertex -0.045185 0.420644 1.604112
vertex -0.113309 0.376505 1.618193
vertex -0.084240 0.747026 1.893092
endloop
endfacet
facet normal 0.348151 -0.258172 0.901187
outer loop
vertex -0.028697 0.407483 1.838218
vertex 0.033491 0.395398 1.810731
vertex -0.078009 0.733225 1.950587
endloop
endfacet
facet normal -0.301172 -0.086092 0.949675
outer loop
vertex -0.084381 0.376511 1.817751
vertex -0.066422 0.106062 1.798929
vertex -0.028697 0.407483 1.838218
endloop
endfacet
facet normal -0.988515 -0.047996 0.143297
outer loop
vertex -0.113309 0.376505 1.618193
vertex -0.111416 0.102353 1.539427
vertex -0.084381 0.376511 1.817751
endloop
endfacet
facet normal 0.962906 0.269370 0.015896
outer loop
vertex 0.107179 0.133810 1.779859
vertex 0.110528 0.134885 1.558780
vertex 0.033491 0.395398 1.810731
endloop
endfacet
facet normal 0.234734 0.275778 -0.932119
outer loop
vertex 0.033890 0.400603 1.618096
vertex 0.110528 0.134885 1.558780
vertex -0.045185 0.420644 1.604112
endloop
endfacet
facet normal -0.209023 0.236340 -0.948922
outer loop
vertex -0.007281 0.164772 1.532035
vertex -0.111416 0.102353 1.539427
vertex -0.045185 0.420644 1.604112
endloop
endfacet
facet normal 0.481487 0.052491 0.874880
outer loop
vertex 0.015419 0.152390 1.829244
vertex 0.107179 0.133810 1.779859
vertex -0.028697 0.407483 1.838218
endloop
endfacet
facet normal -0.428115 0.233513 0.873034
outer loop
vertex 0.382135 -0.010652 2.020092
vertex 0.272978 0.025277 1.956954
vertex 0.374422 -0.041834 2.024650
endloop
endfacet
facet normal 0.548140 -0.821480 0.157204
outer loop
vertex 0.051532 -0.078154 1.948486
vertex 0.039159 -0.115277 1.797640
vertex 0.137953 -0.016498 1.969340
endloop
endfacet
facet normal -0.155462 -0.956351 0.247437
outer loop
vertex -0.047371 -0.088279 1.847622
vertex 0.039159 -0.115277 1.797640
vertex -0.030165 -0.053715 1.992023
endloop
endfacet
facet normal -0.826793 -0.525733 0.200044
outer loop
vertex -0.080094 0.012388 1.959388
vertex -0.104336 -0.012327 1.794241
vertex -0.030165 -0.053715 1.992023
endloop
endfacet
facet normal -0.949143 0.300205 0.094896
outer loop
vertex -0.066422 0.106062 1.798929
vertex -0.104336 -0.012327 1.794241
vertex -0.050432 0.107710 1.953646
endloop
endfacet
facet normal 0.157131 0.987373 -0.020109
outer loop
vertex 0.108295 0.136246 1.908191
vertex 0.107179 0.133810 1.779859
vertex 0.023507 0.150565 1.948739
endloop
endfacet
facet normal 0.842074 0.538230 -0.034929
outer loop
vertex 0.169252 0.037148 1.786836
vertex 0.107179 0.133810 1.779859
vertex 0.157213 0.067149 1.958889
endloop
endfacet
facet normal -0.505297 0.861645 0.047361
outer loop
vertex 0.015419 0.152390 1.829244
vertex -0.066422 0.106062 1.798929
vertex 0.023507 0.150565 1.948739
endloop
endfacet
facet normal -0.891435 -0.225083 0.393294
outer loop
vertex -0.522715 0.087441 2.329890
vertex -0.556369 0.081136 2.250002
vertex -0.520265 0.064923 2.322556
endloop
endfacet
facet normal -0.831315 0.475058 0.288505
outer loop
vertex -0.517911 0.103448 2.317375
vertex -0.540704 0.106128 2.247285
vertex -0.522715 0.087441 2.329890
endloop
endfacet
facet normal -0.123748 -0.977061 0.173314
outer loop
vertex -0.545602 0.056931 2.259410
vertex -0.214926 -0.020889 2.056804
vertex -0.520265 0.064923 2.322556
endloop
endfacet
facet normal -0.010261 0.999819 -0.016040
outer loop
vertex -0.201856 0.104623 2.188435
vertex -0.226828 0.101745 2.025018
vertex -0.517911 0.103448 2.317375
endloop
endfacet
facet normal -0.555246 0.262223 -0.789266
outer loop
vertex -0.540704 0.106128 2.247285
vertex -0.226828 0.101745 2.025018
vertex -0.556369 0.081136 2.250002
endloop
endfacet
facet normal 0.325458 0.504785 0.799543
outer loop
vertex -0.210497 0.062903 2.218292
vertex -0.201856 0.104623 2.188435
vertex -0.522715 0.087441 2.329890
endloop
endfacet
facet normal 0.014754 -0.272127 0.962148
outer loop
vertex -0.187740 0.010423 2.203100
vertex -0.011461 -0.007679 2.195277
vertex -0.210497 0.062903 2.218292
endloop
endfacet
facet normal -0.326271 -0.605012 -0.726297
outer loop
vertex -0.080094 0.012388 1.959388
vertex -0.030165 -0.053715 1.992023
vertex -0.251941 0.031299 2.020833
endloop
endfacet
facet normal -0.093444 -0.969879 0.224950
outer loop
vertex -0.214926 -0.020889 2.056804
vertex -0.030165 -0.053715 1.992023
vertex -0.187740 0.010423 2.203100
endloop
endfacet
facet normal -0.061168 0.997780 -0.026331
outer loop
vertex -0.034289 0.114565 2.175907
vertex -0.050432 0.107710 1.953646
vertex -0.201856 0.104623 2.188435
endloop
endfacet
facet normal -0.373874 0.187245 -0.908382
outer loop
vertex -0.226828 0.101745 2.025018
vertex -0.050432 0.107710 1.953646
vertex -0.251941 0.031299 2.020833
endloop
endfacet
facet normal 0.031625 0.567280 0.822918
outer loop
vertex -0.044783 0.059354 2.214370
vertex -0.034289 0.114565 2.175907
vertex -0.210497 0.062903 2.218292
endloop
endfacet
facet normal -0.526985 0.848533 0.047746
outer loop
vertex -0.106218 0.099226 0.441352
vertex -0.087608 0.085820 0.885000
vertex -0.005230 0.161945 0.441352
endloop
endfacet
facet normal 0.227368 0.972639 0.047721
outer loop
vertex 0.110528 0.134885 0.441352
vertex -0.005230 0.161945 0.441352
vertex 0.097220 0.116229 0.885000
endloop
endfacet
facet normal 0.848534 0.526994 0.047614
outer loop
vertex 0.173248 0.033897 0.441352
vertex 0.110528 0.134885 0.441352
vertex 0.150704 0.030112 0.885000
endloop
endfacet
facet normal 0.972650 -0.227370 0.047485
outer loop
vertex 0.173248 0.033897 0.441352
vertex 0.150704 0.030112 0.885000
vertex 0.146188 -0.081861 0.441352
endloop
endfacet
facet normal 0.526993 -0.848546 0.047410
outer loop
vertex 0.045200 -0.144580 0.441352
vertex 0.146188 -0.081861 0.441352
vertex 0.041512 -0.122083 0.885000
endloop
endfacet
facet normal -0.227371 -0.972652 0.047432
outer loop
vertex 0.045200 -0.144580 0.441352
vertex 0.041512 -0.122083 0.885000
vertex -0.070558 -0.117520 0.441352
endloop
endfacet
facet normal -0.972642 0.227366 0.047671
outer loop
vertex -0.133278 -0.016533 0.441352
vertex -0.110683 -0.012892 0.885000
vertex -0.106218 0.099226 0.441352
endloop
endfacet
facet normal -0.848535 -0.527000 0.047541
outer loop
vertex -0.133278 -0.016533 0.441352
vertex -0.070558 -0.117520 0.441352
vertex -0.110683 -0.012892 0.885000
endloop
endfacet
facet normal 0.933494 -0.186096 0.306526
outer loop
vertex 0.374422 -0.041834 2.024650
vertex 0.390932 -0.059596 1.963587
vertex 0.382135 -0.010652 2.020092
endloop
endfacet
facet normal 0.354949 0.927125 -0.120211
outer loop
vertex 0.399147 -0.024906 1.960390
vertex 0.287120 0.001849 1.835954
vertex 0.382135 -0.010652 2.020092
endloop
endfacet
facet normal 0.702582 -0.228489 -0.673922
outer loop
vertex 0.390932 -0.059596 1.963587
vertex 0.271947 -0.063525 1.840874
vertex 0.399147 -0.024906 1.960390
endloop
endfacet
facet normal -0.179404 -0.960354 0.213387
outer loop
vertex 0.259161 -0.033639 1.964627
vertex 0.271947 -0.063525 1.840874
vertex 0.374422 -0.041834 2.024650
endloop
endfacet
facet normal 0.058337 0.115461 0.991597
outer loop
vertex 0.272978 0.025277 1.956954
vertex 0.157213 0.067149 1.958889
vertex 0.259161 -0.033639 1.964627
endloop
endfacet
facet normal 0.337412 0.930771 -0.140780
outer loop
vertex 0.287120 0.001849 1.835954
vertex 0.169252 0.037148 1.786836
vertex 0.272978 0.025277 1.956954
endloop
endfacet
facet normal 0.336759 -0.148141 -0.929864
outer loop
vertex 0.271947 -0.063525 1.840874
vertex 0.147960 -0.055284 1.794658
vertex 0.287120 0.001849 1.835954
endloop
endfacet
facet normal -0.129036 -0.969602 0.207896
outer loop
vertex 0.137953 -0.016498 1.969340
vertex 0.147960 -0.055284 1.794658
vertex 0.259161 -0.033639 1.964627
endloop
endfacet
facet normal -0.885410 -0.362834 0.290518
outer loop
vertex -0.468269 0.015294 1.478028
vertex -0.447961 0.015734 1.540470
vertex -0.481316 0.049864 1.481440
endloop
endfacet
facet normal 0.185710 -0.026564 0.982246
outer loop
vertex -0.447961 0.015734 1.540470
vertex -0.220884 0.004370 1.497230
vertex -0.461036 0.050491 1.543882
endloop
endfacet
facet normal -0.404750 0.084040 -0.910557
outer loop
vertex -0.205924 0.082954 1.362080
vertex -0.219910 0.007643 1.361346
vertex -0.481316 0.049864 1.481440
endloop
endfacet
facet normal -0.119802 0.992756 0.009158
outer loop
vertex -0.206475 0.081634 1.497964
vertex -0.205924 0.082954 1.362080
vertex -0.461036 0.050491 1.543882
endloop
endfacet
facet normal -0.240975 -0.970461 -0.011716
outer loop
vertex -0.133738 -0.013374 1.329843
vertex -0.139969 -0.014357 1.539427
vertex -0.219910 0.007643 1.361346
endloop
endfacet
facet normal -0.440010 0.107648 0.891517
outer loop
vertex -0.139969 -0.014357 1.539427
vertex -0.111416 0.102353 1.539427
vertex -0.220884 0.004370 1.497230
endloop
endfacet
facet normal -0.317460 0.068173 -0.945818
outer loop
vertex -0.205924 0.082954 1.362080
vertex -0.106285 0.099692 1.329843
vertex -0.219910 0.007643 1.361346
endloop
endfacet
facet normal -0.216534 0.976237 0.008605
outer loop
vertex -0.206475 0.081634 1.497964
vertex -0.111416 0.102353 1.539427
vertex -0.205924 0.082954 1.362080
endloop
endfacet
endsolid
